<?xml version="1.0" encoding="UTF-8"?>
<svg version="1.1" xmlns="http://www.w3.org/2000/svg" width="256" height="256">
<path d="M0 0 C0.09353417 15.65550103 0.16402355 31.31092635 0.20724869 46.96663761 C0.22785436 54.23623571 0.25593649 61.50565998 0.30175781 68.77514648 C0.34168706 75.11289652 0.36744732 81.45052063 0.37635398 87.78839296 C0.38155854 91.14281492 0.39374863 94.49687668 0.42292023 97.85118294 C0.45196023 101.60030594 0.45595555 105.34868299 0.45410156 109.09790039 C0.46848267 110.20417282 0.48286377 111.31044525 0.49768066 112.45024109 C0.45822591 119.82459523 -0.53861196 124.48043737 -5.859375 129.890625 C-15.7206535 136.98096574 -25.06508138 138.31992356 -37 137 C-43.33203594 135.46805582 -49.29497542 132.75846649 -53.18359375 127.35546875 C-56.4670213 121.77705031 -56.88968808 116.34829513 -56 110 C-54.1439853 103.26034662 -49.87839395 99.49245758 -44 96 C-33.94271188 91.19993067 -24.43422772 93.39144307 -14 96 C-14 77.52 -14 59.04 -14 40 C-27.01178726 45.89188783 -27.01178726 45.89188783 -40.02294922 51.78515625 C-41.70017341 52.54431922 -43.37741828 53.30343653 -45.0546875 54.0625 C-45.86945557 54.43181641 -46.68422363 54.80113281 -47.52368164 55.18164062 C-56.3293847 59.1653517 -65.16578286 63.08005566 -74 67 C-74.00142502 68.15987427 -74.00285004 69.31974854 -74.00431824 70.51477051 C-74.02100909 81.46128171 -74.06384678 92.40742216 -74.13209057 103.35373688 C-74.1663381 108.98099568 -74.19146713 114.60798362 -74.19555664 120.23535156 C-74.19984429 125.66912602 -74.22834646 131.10228969 -74.27343178 136.53587341 C-74.28639174 138.60579365 -74.2907198 140.67578703 -74.28615379 142.7457428 C-74.28123724 145.65212434 -74.30738748 148.55672802 -74.34057617 151.46289062 C-74.33195053 152.31309784 -74.32332489 153.16330505 -74.31443787 154.03927612 C-74.43131549 160.17026991 -76.16954273 164.21215993 -80 169 C-82.24609375 171.0234375 -82.24609375 171.0234375 -84.4375 172.375 C-85.51837891 173.06722656 -85.51837891 173.06722656 -86.62109375 173.7734375 C-95.32021638 178.25869941 -106.49682872 178.58509445 -115.96484375 176.27734375 C-118.16075412 175.35018159 -120.03340105 174.34165751 -122 173 C-122.58007812 172.61457031 -123.16015625 172.22914063 -123.7578125 171.83203125 C-127.48117554 169.05299942 -129.58667494 166.39701129 -131 162 C-131.83882263 154.86068741 -131.98144768 148.57579435 -127.5546875 142.6484375 C-122.30833022 137.08571697 -116.43067825 133.99931539 -108.6875 133.734375 C-107.12500018 133.72911406 -105.5624321 133.73453038 -104 133.75 C-103.21882813 133.74226562 -102.43765625 133.73453125 -101.6328125 133.7265625 C-100.48425781 133.73042969 -100.48425781 133.73042969 -99.3125 133.734375 C-98.62800781 133.73663086 -97.94351563 133.73888672 -97.23828125 133.74121094 C-95 134 -95 134 -89 136 C-88.67 103.66 -88.34 71.32 -88 38 C-39.72076526 16.15939381 -39.72076526 16.15939381 -23 8.875 C-20.37797535 7.72965306 -17.75628271 6.5835504 -15.13476562 5.43704224 C-13.55700542 4.74730337 -11.97890566 4.05834044 -10.40039062 3.37033081 C-2.67679627 0 -2.67679627 0 0 0 Z " fill="#7562AA" transform="translate(184,39)"/>
<path d="M0 0 C0.09353417 15.65550103 0.16402355 31.31092635 0.20724869 46.96663761 C0.22785436 54.23623571 0.25593649 61.50565998 0.30175781 68.77514648 C0.34168706 75.11289652 0.36744732 81.45052063 0.37635398 87.78839296 C0.38155854 91.14281492 0.39374863 94.49687668 0.42292023 97.85118294 C0.45196023 101.60030594 0.45595555 105.34868299 0.45410156 109.09790039 C0.46848267 110.20417282 0.48286377 111.31044525 0.49768066 112.45024109 C0.45822591 119.82459523 -0.53861196 124.48043737 -5.859375 129.890625 C-15.7206535 136.98096574 -25.06508138 138.31992356 -37 137 C-43.33203594 135.46805582 -49.29497542 132.75846649 -53.18359375 127.35546875 C-56.4670213 121.77705031 -56.88968808 116.34829513 -56 110 C-54.1439853 103.26034662 -49.87839395 99.49245758 -44 96 C-33.94271188 91.19993067 -24.43422772 93.39144307 -14 96 C-14 77.52 -14 59.04 -14 40 C-27.01178726 45.89188783 -27.01178726 45.89188783 -40.02294922 51.78515625 C-41.70017341 52.54431922 -43.37741828 53.30343653 -45.0546875 54.0625 C-45.86945557 54.43181641 -46.68422363 54.80113281 -47.52368164 55.18164062 C-56.3293847 59.1653517 -65.16578286 63.08005566 -74 67 C-74.00142502 68.15987427 -74.00285004 69.31974854 -74.00431824 70.51477051 C-74.02100909 81.46128171 -74.06384678 92.40742216 -74.13209057 103.35373688 C-74.1663381 108.98099568 -74.19146713 114.60798362 -74.19555664 120.23535156 C-74.19984429 125.66912602 -74.22834646 131.10228969 -74.27343178 136.53587341 C-74.28639174 138.60579365 -74.2907198 140.67578703 -74.28615379 142.7457428 C-74.28123724 145.65212434 -74.30738748 148.55672802 -74.34057617 151.46289062 C-74.33195053 152.31309784 -74.32332489 153.16330505 -74.31443787 154.03927612 C-74.43131549 160.17026991 -76.16954273 164.21215993 -80 169 C-82.24609375 171.0234375 -82.24609375 171.0234375 -84.4375 172.375 C-85.51837891 173.06722656 -85.51837891 173.06722656 -86.62109375 173.7734375 C-95.32021638 178.25869941 -106.49682872 178.58509445 -115.96484375 176.27734375 C-118.16075412 175.35018159 -120.03340105 174.34165751 -122 173 C-122.58007812 172.61457031 -123.16015625 172.22914063 -123.7578125 171.83203125 C-127.48117554 169.05299942 -129.58667494 166.39701129 -131 162 C-131.83882263 154.86068741 -131.98144768 148.57579435 -127.5546875 142.6484375 C-122.30833022 137.08571697 -116.43067825 133.99931539 -108.6875 133.734375 C-107.12500018 133.72911406 -105.5624321 133.73453038 -104 133.75 C-103.21882813 133.74226562 -102.43765625 133.73453125 -101.6328125 133.7265625 C-100.48425781 133.73042969 -100.48425781 133.73042969 -99.3125 133.734375 C-98.62800781 133.73663086 -97.94351563 133.73888672 -97.23828125 133.74121094 C-95 134 -95 134 -89 136 C-88.67 103.66 -88.34 71.32 -88 38 C-39.72076526 16.15939381 -39.72076526 16.15939381 -23 8.875 C-20.37797535 7.72965306 -17.75628271 6.5835504 -15.13476562 5.43704224 C-13.55700542 4.74730337 -11.97890566 4.05834044 -10.40039062 3.37033081 C-2.67679627 0 -2.67679627 0 0 0 Z M-9.390625 4.95703125 C-15.38181682 7.79955183 -21.41010873 10.53886911 -27.484375 13.19921875 C-28.30941528 13.56061447 -29.13445557 13.92201019 -29.98449707 14.2943573 C-31.695143 15.04268802 -33.40604373 15.79043653 -35.1171875 16.53762817 C-39.61642361 18.50265411 -44.11267057 20.47450185 -48.609375 22.4453125 C-49.49733765 22.83431229 -50.38530029 23.22331207 -51.3001709 23.62409973 C-59.20683459 27.08844571 -67.1074492 30.56612393 -75 34.0625 C-76.11987305 34.55645264 -77.23974609 35.05040527 -78.39355469 35.55932617 C-79.39805664 36.0051001 -80.40255859 36.45087402 -81.4375 36.91015625 C-82.30246094 37.29308838 -83.16742188 37.67602051 -84.05859375 38.07055664 C-85.95892935 38.84811378 -85.95892935 38.84811378 -87 40 C-87.09532328 43.07454761 -87.1255138 46.12659158 -87.11352539 49.20141602 C-87.11367142 50.16716553 -87.11381744 51.13291504 -87.1139679 52.12792969 C-87.11326834 55.33661099 -87.10547397 58.54523503 -87.09765625 61.75390625 C-87.09579222 63.97208118 -87.09436825 66.19025652 -87.09336853 68.40843201 C-87.08954216 74.25940071 -87.07971086 80.11034477 -87.06866455 85.96130371 C-87.05845299 91.92667304 -87.05387146 97.89204633 -87.04882812 103.85742188 C-87.03808869 115.57162544 -87.02101085 127.28581067 -87 139 C-88.10174561 138.51877686 -89.20349121 138.03755371 -90.33862305 137.54174805 C-98.53497302 134.09039444 -107.87181698 133.5424391 -116.3125 136.5625 C-122.06595999 139.17518231 -126.23384852 143.00522141 -129.4375 148.4375 C-130.9040226 155.11832518 -130.28838284 159.99019687 -127 166 C-121.95187292 172.02970735 -115.80834168 175.56625784 -107.96875 176.2734375 C-97.55333405 176.57839337 -88.71075351 174.83278676 -80.875 167.5625 C-75.71398381 162.23458527 -75.71377528 155.76065777 -75.77294922 148.78173828 C-75.77265717 147.87378006 -75.77236511 146.96582184 -75.77206421 146.03034973 C-75.77345221 143.04357182 -75.78898852 140.05704658 -75.8046875 137.0703125 C-75.80841951 134.99380632 -75.81126559 132.91729837 -75.81326294 130.84078979 C-75.82088457 125.3860586 -75.84052049 119.93143458 -75.8626709 114.47674561 C-75.88316097 108.90638682 -75.89227142 103.33601064 -75.90234375 97.765625 C-75.92376773 86.84370301 -75.95788596 75.92186043 -76 65 C-75.07077225 64.69569565 -74.14154449 64.3913913 -73.18415833 64.0778656 C-70.00225028 63.00076174 -67.0082869 61.73367997 -63.94921875 60.34765625 C-62.78704834 59.82333008 -61.62487793 59.29900391 -60.42749023 58.75878906 C-59.81735077 58.48200317 -59.2072113 58.20521729 -58.57858276 57.92004395 C-55.35224654 56.4570064 -52.12103943 55.00478578 -48.890625 53.55078125 C-48.2343663 53.25509247 -47.5781076 52.95940369 -46.90196228 52.65475464 C-40.25788063 49.6621587 -33.60204087 46.69679818 -26.9375 43.75 C-25.89231201 43.284729 -24.84712402 42.81945801 -23.77026367 42.34008789 C-22.8032251 41.91332764 -21.83618652 41.48656738 -20.83984375 41.046875 C-19.57708618 40.48758301 -19.57708618 40.48758301 -18.28881836 39.91699219 C-16 39 -16 39 -12 38 C-12.33 57.8 -12.66 77.6 -13 98 C-16.63 97.01 -20.26 96.02 -24 95 C-31.83659591 93.98499166 -39.20394313 94.77447241 -46 99 C-50.67661435 103.23411466 -54.69400651 107.81766773 -55.3125 114.25 C-54.76576401 120.81083183 -53.22865652 125.21989672 -48.375 129.8125 C-40.76982093 135.86898806 -32.54586682 137.07421519 -23 136 C-14.27270501 134.04508592 -8.08896471 129.92298054 -2.41777039 123.095047 C-0.24108811 118.34326631 -0.60809578 113.76564043 -0.65942383 108.6003418 C-0.65898575 107.44869034 -0.65854767 106.29703888 -0.65809631 105.11048889 C-0.66018515 101.30655931 -0.68352157 97.50307128 -0.70703125 93.69921875 C-0.71262684 91.06077821 -0.71689711 88.42233455 -0.71989441 85.78388977 C-0.72920969 79.55077006 -0.75381633 73.31780866 -0.78394288 67.08475858 C-0.8175031 59.98685568 -0.83397695 52.88894512 -0.84902918 45.7909826 C-0.88036644 31.19390683 -0.9331168 16.59695563 -1 2 C-4.1153353 2 -6.63232745 3.62634291 -9.390625 4.95703125 Z " fill="#D6D4D9" transform="translate(184,39)"/>
<path d="M0 0 C0.33 0.99 0.66 1.98 1 3 C-9.13836478 11 -9.13836478 11 -15 11 C-15 10.34 -15 9.68 -15 9 C-14.33613281 8.76925781 -13.67226562 8.53851563 -12.98828125 8.30078125 C-7.5009982 6.2740913 -3.76134878 4.51361854 0 0 Z " fill="#D0D0D7" transform="translate(179,164)"/>
<path d="M0 0 C0.33 0.99 0.66 1.98 1 3 C-3.93069452 7.18788859 -7.44672101 9.72694671 -14 10 C-11.02639238 8.01759492 -7.99568517 6.16405979 -4.9375 4.31640625 C-3.04785419 3.03251383 -1.55472419 1.66646999 0 0 Z " fill="#CECFD7" transform="translate(104,204)"/>
<path d="M0 0 C0.33 0.99 0.66 1.98 1 3 C0.34 3.66 -0.32 4.32 -1 5 C-1.99 4.67 -2.98 4.34 -4 4 C-2.68 2.68 -1.36 1.36 0 0 Z " fill="#C7C8D4" transform="translate(104,204)"/>
<path d="M0 0 C0.66 0 1.32 0 2 0 C1.34 1.32 0.68 2.64 0 4 C-0.99 4 -1.98 4 -3 4 C-1.625 2 -1.625 2 0 0 Z " fill="#CDCCD6" transform="translate(60,178)"/>
<path d="M0 0 C0.33 0.99 0.66 1.98 1 3 C0.34 3.66 -0.32 4.32 -1 5 C-1.99 4.67 -2.98 4.34 -4 4 C-2.68 2.68 -1.36 1.36 0 0 Z " fill="#C7C7D3" transform="translate(179,164)"/>
<path d="M0 0 C1.32 0.66 2.64 1.32 4 2 C2.35 2.33 0.7 2.66 -1 3 C-0.67 2.01 -0.34 1.02 0 0 Z " fill="#CDBFD0" transform="translate(165,46)"/>
<path d="M0 0 C0.99 0.33 1.98 0.66 3 1 C1.02 1.99 1.02 1.99 -1 3 C-0.67 2.01 -0.34 1.02 0 0 Z " fill="#D2C8D4" transform="translate(174,42)"/>
</svg>
