<?xml version="1.0" encoding="UTF-8"?>
<svg version="1.1" xmlns="http://www.w3.org/2000/svg" width="256" height="256">
<path d="M0 0 C2.50381565 1.93968434 4.87045564 3.96129022 7.21875 6.0859375 C7.97671875 6.75109375 8.7346875 7.41625 9.515625 8.1015625 C23.02328234 20.67765726 31.87609265 38.60616097 32.5546875 57.125 C32.86846254 79.84711385 28.90549847 98.74795235 13.21875 116.0859375 C12.55359375 116.84390625 11.8884375 117.601875 11.203125 118.3828125 C-1.37296976 131.89046984 -19.30147347 140.74328015 -37.8203125 141.421875 C-60.54242635 141.73565004 -79.44326485 137.77268597 -96.78125 122.0859375 C-97.53921875 121.42078125 -98.2971875 120.755625 -99.078125 120.0703125 C-112.58578234 107.49421774 -121.43859265 89.56571403 -122.1171875 71.046875 C-122.43096254 48.32476115 -118.46799847 29.42392265 -102.78125 12.0859375 C-102.11609375 11.32796875 -101.4509375 10.57 -100.765625 9.7890625 C-75.10677132 -17.770447 -30.63951073 -21.08618014 0 0 Z " fill="#F99F3C" transform="translate(172.78125,63.9140625)"/>
<path d="M0 0 C2.49184354 0.00532704 4.98350391 0.00003726 7.4753418 -0.00634766 C15.82091853 -0.01189432 24.16167822 0.11266189 32.50073242 0.45068359 C33.25492966 0.47266815 34.00912689 0.49465271 34.78617859 0.51730347 C40.34670618 0.78455309 45.13432489 2.15131141 50.32495117 4.13037109 C51.35024123 10.62387479 47.97793657 15.08800236 44.32495117 20.13037109 C36.33412646 29.79448816 24.83744071 36.89984511 12.2434082 38.37402344 C-1.32506251 39.43605897 -12.98726189 37.03686478 -23.61254883 28.01318359 C-24.29317383 27.39185547 -24.97379883 26.77052734 -25.67504883 26.13037109 C-26.39692383 25.48841797 -27.11879883 24.84646484 -27.86254883 24.18505859 C-32.65632917 19.69088953 -37.13717028 14.85473767 -37.90942383 8.07177734 C-37.92504883 6.13037109 -37.92504883 6.13037109 -37.67504883 3.13037109 C-25.91423296 -1.06992029 -12.34303236 -0.0312269 0 0 Z " fill="#24201F" transform="translate(121.675048828125,127.86962890625)"/>
<path d="M0 0 C3.46252456 2.06624431 5.5163292 3.57332192 7.78515625 6.9765625 C7.91015625 9.6640625 7.91015625 9.6640625 7.78515625 11.9765625 C5.59765625 12.7890625 5.59765625 12.7890625 2.78515625 12.9765625 C1.11848958 11.30989583 -0.54817708 9.64322917 -2.21484375 7.9765625 C-5.65821149 6.65107418 -5.65821149 6.65107418 -9.21484375 6.9765625 C-11.89319175 9.13088589 -13.67738794 10.90165089 -15.21484375 13.9765625 C-16.86484375 13.9765625 -18.51484375 13.9765625 -20.21484375 13.9765625 C-20.96484375 11.8515625 -20.96484375 11.8515625 -21.21484375 8.9765625 C-17.22604774 0.83277064 -8.81205907 -4.0718862 0 0 Z " fill="#2D2620" transform="translate(105.21484375,100.0234375)"/>
<path d="M0 0 C3.58556967 2.338415 5.46076189 4.32464985 7.875 7.875 C8.1875 10.75 8.1875 10.75 7.875 12.875 C6.225 13.205 4.575 13.535 2.875 13.875 C2.194375 12.905625 1.51375 11.93625 0.8125 10.9375 C-1.33249939 8.4057965 -2.22510829 7.83792286 -5.5 6.625 C-10.02675411 6.93718994 -11.43697067 8.40426697 -14.44921875 11.625 C-16.125 12.875 -16.125 12.875 -18.33203125 12.5625 C-18.92371094 12.335625 -19.51539063 12.10875 -20.125 11.875 C-20.455 10.225 -20.785 8.575 -21.125 6.875 C-19.85927767 5.72352339 -18.58722094 4.57900686 -17.3125 3.4375 C-16.60480469 2.79941406 -15.89710938 2.16132812 -15.16796875 1.50390625 C-10.59900842 -2.13903153 -5.31609962 -1.91379586 0 0 Z " fill="#2A2420" transform="translate(163.125,100.125)"/>
</svg>
