<?xml version="1.0" encoding="UTF-8"?>
<svg version="1.1" xmlns="http://www.w3.org/2000/svg" width="256" height="256">
<path d="M0 0 C3.50128954 0.71588364 4.7230497 1.73830705 7.16577148 4.31713867 C7.92696289 5.10217773 8.6881543 5.8872168 9.47241211 6.69604492 C10.24907227 7.52749023 11.02573242 8.35893555 11.82592773 9.21557617 C13.37434776 10.83502464 14.9250931 12.45225329 16.47827148 14.06713867 C17.22069092 14.8421875 17.96311035 15.61723633 18.72802734 16.41577148 C21.63458604 19.34170943 24.71439897 21.95904722 27.88842773 24.59057617 C29.95092773 26.59057617 29.95092773 26.59057617 30.88842773 28.59057617 C29.75067351 33.91049929 27.03545 36.98082787 23.22436523 40.64526367 C22.67229401 41.19167511 22.12022278 41.73808655 21.55142212 42.30105591 C19.7979749 44.03223654 18.03109822 45.74893322 16.26342773 47.46557617 C15.06719854 48.64172789 13.87187568 49.81880217 12.67749023 50.99682617 C9.75818472 53.87219349 6.82675819 56.73465844 3.88842773 59.59057617 C5.38774835 60.94549501 6.88792828 62.29946296 8.38842773 63.65307617 C9.22374023 64.40717773 10.05905273 65.1612793 10.91967773 65.93823242 C12.48982703 67.34103686 14.06277891 68.74098522 15.6570425 70.11632252 C20.48402902 74.28248597 25.08321194 78.62146888 29.60546875 83.11474609 C30.69227684 84.18928795 30.69227684 84.18928795 31.80104065 85.28553772 C34.16778971 87.62771813 36.53059617 89.97381198 38.89233398 92.32104492 C39.70265516 93.12604242 40.51297634 93.93103992 41.34785271 94.76043129 C45.62279974 99.0087923 49.8941642 103.26072184 54.16308594 107.51513672 C57.69752934 111.03616139 61.23913086 114.54974418 64.78710938 118.05712891 C69.08022681 122.30114467 73.361142 126.55710262 77.63334465 130.82216835 C79.26269052 132.44477918 80.89630558 134.06311448 82.53418159 135.67711449 C84.81323717 137.92478463 87.07625971 140.18746311 89.3359375 142.45458984 C90.01891907 143.12116608 90.70190063 143.78774231 91.40557861 144.47451782 C92.3201458 145.40156273 92.3201458 145.40156273 93.25318909 146.34733582 C94.05753812 147.14671963 94.05753812 147.14671963 94.87813663 147.96225262 C95.88842773 149.59057617 95.88842773 149.59057617 95.64231777 151.67784595 C94.07203999 155.66187229 90.56036694 158.42980419 87.57592773 161.40307617 C86.89852539 162.10883789 86.22112305 162.81459961 85.52319336 163.54174805 C84.86383789 164.20368164 84.20448242 164.86561523 83.52514648 165.54760742 C82.92404053 166.15580322 82.32293457 166.76399902 81.70361328 167.390625 C79.88842773 168.59057617 79.88842773 168.59057617 77.90258789 168.50610352 C75.39712679 167.36725756 73.9387598 165.96404154 72.02514648 163.98510742 C71.30262695 163.2484082 70.58010742 162.51170898 69.83569336 161.75268555 C69.0899707 160.97731445 68.34424805 160.20194336 67.57592773 159.40307617 C62.98560489 154.67572877 58.41513824 150.08807258 53.35595703 145.86230469 C50.92243801 143.75347078 48.97924384 141.30278083 46.95483398 138.81323242 C45.14756579 136.86930879 43.32162709 135.21023221 41.30786133 133.48974609 C36.72363218 129.49986389 32.41030892 125.27414489 28.11108398 120.98120117 C26.89490639 119.77001617 26.89490639 119.77001617 25.65415955 118.53436279 C23.94944733 116.83468436 22.24606174 115.13367442 20.54394531 113.43139648 C17.96692421 110.85655909 15.38200919 108.28983101 12.79663086 105.72338867 C-2.30266003 90.6724713 -2.30266003 90.6724713 -8.42236328 82.61303711 C-10.14358454 80.55224842 -11.90428032 79.10515255 -14.11157227 77.59057617 C-18.667127 81.4013884 -22.95742915 85.38347815 -27.09204102 89.64916992 C-27.94604492 90.52895508 -28.80004883 91.40874023 -29.67993164 92.31518555 C-31.44535745 94.14380333 -33.20303426 95.9799302 -34.95336914 97.82299805 C-35.80350586 98.69375977 -36.65364258 99.56452148 -37.52954102 100.46166992 C-38.29032959 101.25500732 -39.05111816 102.04834473 -39.83496094 102.86572266 C-42.11157227 104.59057617 -42.11157227 104.59057617 -44.49829102 105.20458984 C-48.44878423 104.27638633 -50.73940741 101.69617255 -53.50610352 98.89526367 C-54.09832199 98.3102005 -54.69054047 97.72513733 -55.30070496 97.12234497 C-56.54817828 95.88264847 -57.78929164 94.63652376 -59.02441406 93.38452148 C-60.91589994 91.47383147 -62.83482911 89.59424921 -64.75805664 87.71557617 C-65.96751282 86.50641039 -67.17525498 85.29552723 -68.38110352 84.08276367 C-68.95601028 83.52313934 -69.53091705 82.96351501 -70.12324524 82.38693237 C-72.54360397 79.89418157 -74.0097706 78.00086876 -74.85253906 74.60424805 C-73.76453056 70.17908266 -71.23146308 67.96046017 -67.98657227 64.87963867 C-67.36508301 64.2666391 -66.74359375 63.65363953 -66.10327148 63.02206421 C-64.11969751 61.07201253 -62.11627489 59.14387714 -60.11157227 57.21557617 C-58.7612503 55.89535487 -57.41227476 54.57375494 -56.06469727 53.25073242 C-52.76238566 50.01448985 -49.44211765 46.79774459 -46.11157227 43.59057617 C-46.77157227 41.94057617 -47.43157227 40.29057617 -48.11157227 38.59057617 C-46.09040833 36.38049039 -44.04837181 34.19968895 -41.98657227 32.02807617 C-41.41680664 31.3996582 -40.84704102 30.77124023 -40.26000977 30.1237793 C-39.69282227 29.5340332 -39.12563477 28.94428711 -38.54125977 28.33666992 C-37.77144775 27.51187134 -37.77144775 27.51187134 -36.98608398 26.67041016 C-35.11157227 25.59057617 -35.11157227 25.59057617 -32.27612305 26.26831055 C-28.9122128 26.97580481 -28.9122128 26.97580481 -26.13891602 24.31738281 C-25.09150877 23.22835946 -24.0624849 22.12145925 -23.04907227 21.00073242 C-22.49469482 20.42222031 -21.94031738 19.84370819 -21.36914062 19.24766541 C-19.59897188 17.39863593 -17.85338329 15.52881718 -16.11157227 13.65307617 C-14.36898749 11.78179415 -12.62176164 9.91673628 -10.85400391 8.06919861 C-9.75491069 6.92035989 -8.6699961 5.75774397 -7.6015625 4.58033752 C-5.13344825 1.99862151 -3.54843394 0.67349248 0 0 Z " fill="#8C3927" transform="translate(117.111572265625,42.409423828125)"/>
<path d="M0 0 C6.29638216 2.81012563 11.06361259 8.65156387 15.2144165 13.98831177 C16.86444478 15.34218112 18.5318552 16.67509319 20.2144165 17.98831177 C21.90057433 19.63525662 23.57011821 21.29957298 25.2144165 22.98831177 C26.2044165 23.97831177 26.2044165 23.97831177 27.2144165 24.98831177 C27.62261963 27.2973938 27.62261963 27.2973938 27.2144165 29.98831177 C25.32183838 32.46438599 25.32183838 32.46438599 22.6831665 35.04299927 C22.2138269 35.5076358 21.7444873 35.97227234 21.26092529 36.45098877 C19.75675863 37.9338548 18.23591361 39.39825574 16.7144165 40.86331177 C15.72113795 41.84006808 14.72893867 42.81792321 13.737854 43.79690552 C8.98114379 48.47232133 4.12455799 52.99133504 -0.93548584 57.33889771 C-4.91256866 60.88457883 -8.55211373 64.79405321 -12.22894287 68.64651489 C-16.15472694 72.66235866 -19.79240359 75.41426198 -24.7855835 77.98831177 C-29.27511645 80.65844675 -33.58714324 83.52941777 -37.8480835 86.55081177 C-45.94191734 92.22022534 -45.94191734 92.22022534 -49.7855835 93.98831177 C-51.9730835 93.42581177 -51.9730835 93.42581177 -53.7855835 91.98831177 C-54.5280835 91.49331177 -55.2705835 90.99831177 -56.0355835 90.48831177 C-56.6130835 89.99331177 -57.1905835 89.49831177 -57.7855835 88.98831177 C-57.7855835 88.32831177 -57.7855835 87.66831177 -57.7855835 86.98831177 C-58.7755835 86.65831177 -59.7655835 86.32831177 -60.7855835 85.98831177 C-60.7855835 85.32831177 -60.7855835 84.66831177 -60.7855835 83.98831177 C-61.3424585 83.76143677 -61.8993335 83.53456177 -62.4730835 83.30081177 C-65.43253439 81.62112342 -67.44685133 79.44697891 -69.7855835 76.98831177 C-70.4043335 76.49331177 -71.0230835 75.99831177 -71.6605835 75.48831177 C-72.7855835 73.98831177 -72.7855835 73.98831177 -72.75390625 71.8269043 C-71.31789905 67.61731686 -68.53576017 65.16479199 -65.41741943 62.0708313 C-64.7523085 61.3954985 -64.08719757 60.72016571 -63.40193176 60.02436829 C-61.20153319 57.79617927 -58.9865951 55.58315205 -56.7699585 53.37112427 C-55.23592533 51.82931889 -53.70234163 50.2870662 -52.16918945 48.74438477 C-48.95452376 45.51479627 -45.73221576 42.29306925 -42.50482178 39.07620239 C-38.36374779 34.94673633 -34.24588695 30.79495019 -30.1338768 26.63656807 C-26.97363054 23.44690911 -23.79969349 20.27115782 -20.62158966 17.09930038 C-19.09702365 15.57370543 -17.57719853 14.04335784 -16.06218719 12.50827408 C-13.94589519 10.36739826 -11.81151932 8.24636948 -9.67132568 6.12942505 C-8.73284538 5.16801353 -8.73284538 5.16801353 -7.77540588 4.18717957 C-3.47060933 -0.01456258 -3.47060933 -0.01456258 0 0 Z " fill="#9FA1A3" transform="translate(117.78558349609375,45.011688232421875)"/>
<path d="M0 0 C3.50128954 0.71588364 4.7230497 1.73830705 7.16577148 4.31713867 C7.92696289 5.10217773 8.6881543 5.8872168 9.47241211 6.69604492 C10.24907227 7.52749023 11.02573242 8.35893555 11.82592773 9.21557617 C13.37434776 10.83502464 14.9250931 12.45225329 16.47827148 14.06713867 C17.22069092 14.8421875 17.96311035 15.61723633 18.72802734 16.41577148 C21.63458604 19.34170943 24.71439897 21.95904722 27.88842773 24.59057617 C29.95092773 26.59057617 29.95092773 26.59057617 30.88842773 28.59057617 C29.75067351 33.91049929 27.03545 36.98082787 23.22436523 40.64526367 C22.67229401 41.19167511 22.12022278 41.73808655 21.55142212 42.30105591 C19.7979749 44.03223654 18.03109822 45.74893322 16.26342773 47.46557617 C15.06719854 48.64172789 13.87187568 49.81880217 12.67749023 50.99682617 C9.75818472 53.87219349 6.82675819 56.73465844 3.88842773 59.59057617 C5.38774835 60.94549501 6.88792828 62.29946296 8.38842773 63.65307617 C9.22374023 64.40717773 10.05905273 65.1612793 10.91967773 65.93823242 C12.48982703 67.34103686 14.06277891 68.74098522 15.6570425 70.11632252 C20.48402902 74.28248597 25.08321194 78.62146888 29.60546875 83.11474609 C30.69227684 84.18928795 30.69227684 84.18928795 31.80104065 85.28553772 C34.16778971 87.62771813 36.53059617 89.97381198 38.89233398 92.32104492 C39.70265516 93.12604242 40.51297634 93.93103992 41.34785271 94.76043129 C45.62279974 99.0087923 49.8941642 103.26072184 54.16308594 107.51513672 C57.69752934 111.03616139 61.23913086 114.54974418 64.78710938 118.05712891 C69.08022681 122.30114467 73.361142 126.55710262 77.63334465 130.82216835 C79.26269052 132.44477918 80.89630558 134.06311448 82.53418159 135.67711449 C84.81323717 137.92478463 87.07625971 140.18746311 89.3359375 142.45458984 C90.01891907 143.12116608 90.70190063 143.78774231 91.40557861 144.47451782 C92.3201458 145.40156273 92.3201458 145.40156273 93.25318909 146.34733582 C94.05753812 147.14671963 94.05753812 147.14671963 94.87813663 147.96225262 C95.88842773 149.59057617 95.88842773 149.59057617 95.64231777 151.67784595 C94.07203999 155.66187229 90.56036694 158.42980419 87.57592773 161.40307617 C86.89852539 162.10883789 86.22112305 162.81459961 85.52319336 163.54174805 C84.86383789 164.20368164 84.20448242 164.86561523 83.52514648 165.54760742 C82.92404053 166.15580322 82.32293457 166.76399902 81.70361328 167.390625 C79.88842773 168.59057617 79.88842773 168.59057617 77.90258789 168.50610352 C75.39712679 167.36725756 73.9387598 165.96404154 72.02514648 163.98510742 C71.30262695 163.2484082 70.58010742 162.51170898 69.83569336 161.75268555 C69.0899707 160.97731445 68.34424805 160.20194336 67.57592773 159.40307617 C62.98560489 154.67572877 58.41513824 150.08807258 53.35595703 145.86230469 C50.92243801 143.75347078 48.97924384 141.30278083 46.95483398 138.81323242 C45.14756579 136.86930879 43.32162709 135.21023221 41.30786133 133.48974609 C36.72363218 129.49986389 32.41030892 125.27414489 28.11108398 120.98120117 C26.89490639 119.77001617 26.89490639 119.77001617 25.65415955 118.53436279 C23.94944733 116.83468436 22.24606174 115.13367442 20.54394531 113.43139648 C17.96692421 110.85655909 15.38200919 108.28983101 12.79663086 105.72338867 C-2.30266003 90.6724713 -2.30266003 90.6724713 -8.42236328 82.61303711 C-10.14358454 80.55224842 -11.90428032 79.10515255 -14.11157227 77.59057617 C-18.667127 81.4013884 -22.95742915 85.38347815 -27.09204102 89.64916992 C-27.94604492 90.52895508 -28.80004883 91.40874023 -29.67993164 92.31518555 C-31.44535745 94.14380333 -33.20303426 95.9799302 -34.95336914 97.82299805 C-35.80350586 98.69375977 -36.65364258 99.56452148 -37.52954102 100.46166992 C-38.29032959 101.25500732 -39.05111816 102.04834473 -39.83496094 102.86572266 C-42.11157227 104.59057617 -42.11157227 104.59057617 -44.49829102 105.20458984 C-48.44878423 104.27638633 -50.73940741 101.69617255 -53.50610352 98.89526367 C-54.09832199 98.3102005 -54.69054047 97.72513733 -55.30070496 97.12234497 C-56.54817828 95.88264847 -57.78929164 94.63652376 -59.02441406 93.38452148 C-60.91589994 91.47383147 -62.83482911 89.59424921 -64.75805664 87.71557617 C-65.96751282 86.50641039 -67.17525498 85.29552723 -68.38110352 84.08276367 C-68.95601028 83.52313934 -69.53091705 82.96351501 -70.12324524 82.38693237 C-72.54360397 79.89418157 -74.0097706 78.00086876 -74.85253906 74.60424805 C-73.76453056 70.17908266 -71.23146308 67.96046017 -67.98657227 64.87963867 C-67.36508301 64.2666391 -66.74359375 63.65363953 -66.10327148 63.02206421 C-64.11969751 61.07201253 -62.11627489 59.14387714 -60.11157227 57.21557617 C-58.7612503 55.89535487 -57.41227476 54.57375494 -56.06469727 53.25073242 C-52.76238566 50.01448985 -49.44211765 46.79774459 -46.11157227 43.59057617 C-46.77157227 41.94057617 -47.43157227 40.29057617 -48.11157227 38.59057617 C-46.09040833 36.38049039 -44.04837181 34.19968895 -41.98657227 32.02807617 C-41.41680664 31.3996582 -40.84704102 30.77124023 -40.26000977 30.1237793 C-39.69282227 29.5340332 -39.12563477 28.94428711 -38.54125977 28.33666992 C-37.77144775 27.51187134 -37.77144775 27.51187134 -36.98608398 26.67041016 C-35.11157227 25.59057617 -35.11157227 25.59057617 -32.27612305 26.26831055 C-28.9122128 26.97580481 -28.9122128 26.97580481 -26.13891602 24.31738281 C-25.09150877 23.22835946 -24.0624849 22.12145925 -23.04907227 21.00073242 C-22.49469482 20.42222031 -21.94031738 19.84370819 -21.36914062 19.24766541 C-19.59897188 17.39863593 -17.85338329 15.52881718 -16.11157227 13.65307617 C-14.36898749 11.78179415 -12.62176164 9.91673628 -10.85400391 8.06919861 C-9.75491069 6.92035989 -8.6699961 5.75774397 -7.6015625 4.58033752 C-5.13344825 1.99862151 -3.54843394 0.67349248 0 0 Z M-5.25679016 5.21440125 C-5.85272476 5.79616623 -6.44865936 6.37793121 -7.06265259 6.97732544 C-7.70439423 7.62402191 -8.34613586 8.27071838 -9.00732422 8.93701172 C-9.69226456 9.61173019 -10.3772049 10.28644867 -11.082901 10.98161316 C-13.34902143 13.21988212 -15.59992269 15.47276038 -17.84985352 17.72729492 C-19.41550722 19.2851787 -20.98160916 20.84261213 -22.54814148 22.39961243 C-25.83079116 25.66732537 -29.10556258 28.942701 -32.37548828 32.22314453 C-36.57336651 36.43262107 -40.79354689 40.61891555 -45.02035236 44.79931927 C-48.26062677 48.01017794 -51.48699188 51.23473247 -54.70946312 54.46344948 C-56.26017782 56.01313501 -57.815647 57.5580776 -59.37584877 59.09821129 C-61.55275172 61.25052964 -63.70982075 63.42094811 -65.86279297 65.59716797 C-66.51465576 66.23374329 -67.16651855 66.8703186 -67.83813477 67.52618408 C-71.27428448 70.86554818 -71.27428448 70.86554818 -72.18180847 75.36750793 C-70.58605491 78.68216786 -67.98125284 80.35222532 -65.11157227 82.59057617 C-64.10583448 83.91958681 -63.10361818 85.25131418 -62.11157227 86.59057617 C-61.45157227 86.59057617 -60.79157227 86.59057617 -60.11157227 86.59057617 C-59.78157227 87.58057617 -59.45157227 88.57057617 -59.11157227 89.59057617 C-58.45157227 89.59057617 -57.79157227 89.59057617 -57.11157227 89.59057617 C-56.86407227 90.18870117 -56.61657227 90.78682617 -56.36157227 91.40307617 C-54.88279429 93.99093764 -53.76895472 95.22392234 -51.11157227 96.59057617 C-44.50117658 94.44996146 -38.08903018 90.4546886 -32.86157227 85.90307617 C-30.04135105 83.53152651 -27.41018686 82.20754411 -24.11157227 80.59057617 C-21.06910514 78.65218989 -18.08530115 76.63253667 -15.11157227 74.59057617 C-11.43486643 76.1010964 -9.39282765 78.23943767 -6.79907227 81.21557617 C-6.08106445 82.0328418 -5.36305664 82.85010742 -4.62329102 83.69213867 C-3.27748958 85.24514748 -1.93279029 86.79913373 -0.59533596 88.35933685 C3.5268232 93.13139038 7.82216466 97.66263769 12.29248047 102.1081543 C12.99575974 102.81157959 13.699039 103.51500488 14.42362976 104.23974609 C16.7207282 106.53615462 19.02133512 108.82901277 21.32202148 111.12182617 C22.92649361 112.72443084 24.53074334 114.32725821 26.13478088 115.93029785 C30.33615516 120.12787277 34.54052497 124.32243458 38.74554443 128.51635742 C43.04434881 132.80489193 47.34028753 137.09629498 51.63647461 141.38745117 C60.05100401 149.79128882 68.46870359 158.19194331 76.88842773 166.59057617 C79.79461908 165.19461131 81.85964539 163.85993416 84.12280273 161.55151367 C84.69643555 160.97143555 85.27006836 160.39135742 85.86108398 159.79370117 C86.44760742 159.19041992 87.03413086 158.58713867 87.63842773 157.96557617 C88.54141602 157.04905273 88.54141602 157.04905273 89.46264648 156.11401367 C90.94248079 154.61068993 92.4160745 153.10122761 93.88842773 151.59057617 C92.59663993 148.7504231 91.2405969 146.69359229 89.03442383 144.49365234 C88.45977386 143.91592575 87.8851239 143.33819916 87.2930603 142.7429657 C86.67226593 142.12935684 86.05147156 141.51574799 85.41186523 140.88354492 C84.76778717 140.23992508 84.12370911 139.59630524 83.46011353 138.93318176 C82.09564636 137.57173319 80.72875206 136.21271342 79.35961914 134.85595703 C77.28669079 132.80113602 75.22172794 130.73857631 73.15795898 128.67456055 C71.82639559 127.34791892 70.49437824 126.02173274 69.16186523 124.69604492 C68.24889175 123.78474068 68.24889175 123.78474068 67.31747437 122.85502625 C63.56808908 119.14594085 59.70339358 115.63266171 55.68179321 112.21992493 C53.89252794 110.59430138 52.36103598 108.89279697 50.82592773 107.02807617 C48.36384466 104.03744809 45.70321447 101.58193808 42.69702148 99.14526367 C38.46691427 95.50901601 34.66919044 91.35846134 30.75561523 87.38745117 C29.26748718 85.88453571 27.77837101 84.38260701 26.28881836 82.88110352 C25.28078824 81.86307053 24.2745671 80.8432428 23.27026367 79.8215332 C16.4800213 72.91730059 9.52770197 66.56620291 1.88842773 60.59057617 C2.69808115 56.67758909 3.92328006 55.36339774 7.01342773 52.77807617 C11.80752566 48.59020865 16.45251755 44.28197472 21.01342773 39.84057617 C21.68905762 39.20273193 22.3646875 38.5648877 23.06079102 37.90771484 C26.72813082 34.40736466 26.72813082 34.40736466 28.48999023 29.79370117 C27.67917192 26.82421073 25.87414015 25.64020676 23.47045898 23.84448242 C21.22819787 22.06728287 19.66345784 19.82367857 17.88842773 17.59057617 C16.23839946 16.23670682 14.57098903 14.90379475 12.88842773 13.59057617 C10.66220707 11.42143809 8.47600174 9.23447204 6.38061523 6.93823242 C4.95621832 5.41720557 3.42590327 3.99720272 1.88842773 2.59057617 C-2.43379657 2.54929601 -2.43379657 2.54929601 -5.25679016 5.21440125 Z " fill="#27201F" transform="translate(117.111572265625,42.409423828125)"/>
<path d="M0 0 C1.32 1.32 2.64 2.64 4 4 C3.48412827 4.50254807 2.96825653 5.00509613 2.43675232 5.52287292 C-2.42010372 10.25955064 -7.26250069 15.01057507 -12.08902073 19.7781477 C-14.57099532 22.22879753 -17.05824354 24.67355225 -19.55834961 27.10571289 C-22.43182102 29.90157328 -25.28074042 32.72133203 -28.12890625 35.54296875 C-29.03089249 36.41398727 -29.93287872 37.2850058 -30.86219788 38.18241882 C-31.68312424 39.002892 -32.5040506 39.82336517 -33.34985352 40.66870117 C-34.44572533 41.74458748 -34.44572533 41.74458748 -35.56373596 42.84220886 C-37.25846596 44.93184222 -37.25846596 44.93184222 -36.90000916 47.61836243 C-35.79241647 50.54931522 -34.0549521 51.82520231 -31.6015625 53.69140625 C-29.57444493 55.34770963 -28.05597496 57.33239547 -26.43359375 59.375 C-23.60746351 62.57846098 -20.26721477 65.25975536 -17 68 C-10.37800854 65.50937576 -4.09954347 61.97041384 1.25 57.3125 C4.08179745 54.93121578 6.67322567 53.59941074 10 52 C13.35947115 50.04283062 16.68185134 48.02630027 20 46 C18.55300091 50.75505317 15.72791304 53.73956215 12.29296875 57.17578125 C11.73055984 57.74580368 11.16815094 58.31582611 10.58869934 58.90312195 C9.40146431 60.10112863 8.21026716 61.29522023 7.01538086 62.4855957 C5.18987027 64.31013099 3.38674881 66.15497319 1.58398438 68.00195312 C0.42578182 69.16536077 -0.73368187 70.32751459 -1.89453125 71.48828125 C-2.43116898 72.04131424 -2.9678067 72.59434723 -3.52070618 73.16413879 C-5.72170322 75.32526637 -7.48536267 76.85476151 -10.48193359 77.70043945 C-14.32815393 76.63055327 -16.66249298 74.07050997 -19.39453125 71.3046875 C-19.98674973 70.71962433 -20.5789682 70.13456116 -21.18913269 69.5317688 C-22.43660601 68.2920723 -23.67771937 67.04594759 -24.9128418 65.79394531 C-26.80432767 63.8832553 -28.72325685 62.00367304 -30.64648438 60.125 C-31.85594056 58.91583422 -33.06368271 57.70495106 -34.26953125 56.4921875 C-34.84443802 55.93256317 -35.41934479 55.37293884 -36.01167297 54.7963562 C-38.41950726 52.31650444 -39.89620358 50.40093716 -40.76831055 47.03222656 C-39.61031103 42.46204735 -36.81884534 40.14930336 -33.4375 36.9921875 C-32.77161865 36.34428253 -32.1057373 35.69637756 -31.41967773 35.02883911 C-29.29355003 32.96271504 -27.14877692 30.91753985 -25 28.875 C-22.85306275 26.82364228 -20.71088018 24.76810739 -18.58032227 22.69973755 C-17.25486167 21.41386837 -15.91962908 20.13798157 -14.57397461 18.8732605 C-13.97335205 18.29230621 -13.37272949 17.71135193 -12.75390625 17.11279297 C-12.22095947 16.60682587 -11.6880127 16.10085876 -11.13891602 15.57955933 C-9.61009535 13.78379922 -9.61009535 13.78379922 -10 10 C-7.8125 7.421875 -7.8125 7.421875 -5 4.75 C-3.6078125 3.41195312 -3.6078125 3.41195312 -2.1875 2.046875 C-1.465625 1.37140625 -0.74375 0.6959375 0 0 Z " fill="#282527" transform="translate(83,70)"/>
<path d="M0 0 C3.59897407 2.10671653 6.27495261 4.16062931 8.9375 7.375 C12.20803481 11.25302076 15.76570251 14.64473631 19.5 18.0625 C26.67241816 24.6434557 33.56868604 31.48064502 40.4375 38.375 C40.96166504 38.90102814 41.48583008 39.42705627 42.02587891 39.96902466 C45.02066568 42.97596865 48.01181104 45.9864973 51 49 C49.67879172 51.93230193 48.25361803 53.98664899 45.9609375 56.234375 C45.38085938 56.80800781 44.80078125 57.38164062 44.203125 57.97265625 C43.59984375 58.55917969 42.9965625 59.14570313 42.375 59.75 C41.76398438 60.35199219 41.15296875 60.95398438 40.5234375 61.57421875 C39.02011376 63.05405305 37.51065144 64.52764676 36 66 C32.64000982 64.54131246 30.44796894 62.69131052 27.87402344 60.10107422 C27.07349548 59.3003952 26.27296753 58.49971619 25.44818115 57.67477417 C24.59387512 56.81014557 23.73956909 55.94551697 22.859375 55.0546875 C21.97719299 54.1696756 21.09501099 53.2846637 20.18609619 52.37283325 C17.84805457 50.02549869 15.51444126 47.67393215 13.18286133 45.32019043 C10.80003474 42.91686073 8.41149652 40.51922233 6.0234375 38.12109375 C1.34368138 33.41928533 -3.33031867 28.71181336 -8 24 C-5 24 -5 24 -3.45703125 25.28515625 C-2.91433594 25.87167969 -2.37164062 26.45820313 -1.8125 27.0625 C0.71410439 29.70637295 3.28701906 32.18047804 6.0625 34.5625 C9.54343736 37.57524111 12.86260341 40.62729867 16 44 C16 44.66 16 45.32 16 46 C16.66 46 17.32 46 18 46 C19.24723719 47.50981345 20.4919173 49.02200129 21.7109375 50.5546875 C22.95936138 52.13377857 22.95936138 52.13377857 25 53 C28.21827307 54.60913654 29.85219961 57.13626615 32 60 C32 60.66 32 61.32 32 62 C34.28694223 62.50379029 34.28694223 62.50379029 37 62 C39.30568024 59.54395681 39.30568024 59.54395681 40.6640625 57.66796875 C42.78303155 55.02235535 45.3477431 53.09713336 48 51 C46.60609461 47.84280428 44.96365028 45.7187347 42.5 43.3125 C41.8915625 42.71050781 41.283125 42.10851562 40.65625 41.48828125 C39.0547309 39.91687598 39.0547309 39.91687598 37 39 C37 38.34 37 37.68 37 37 C36.34 37 35.68 37 35 37 C35 36.34 35 35.68 35 35 C34.34 35 33.68 35 33 35 C31.82230734 33.58676881 30.64949167 32.16904337 29.5078125 30.7265625 C27.36705547 28.27522932 24.89979623 26.31497697 22.35546875 24.296875 C21.90816406 23.86890625 21.46085937 23.4409375 21 23 C21 22.34 21 21.68 21 21 C20.34 21 19.68 21 19 21 C17.61992749 19.7151049 16.29579647 18.36984198 15 17 C12.40055043 14.33214386 9.82567583 11.85769456 6.9375 9.5 C4.19667489 7.16738288 2.06506912 4.9387522 0 2 C0 1.34 0 0.68 0 0 Z " fill="#653C33" transform="translate(160,143)"/>
<path d="M0 0 C2.46800047 1.15173355 4.04783565 2.04783565 6 4 C6.41918945 6.29589844 6.41918945 6.29589844 6 9 C4.02807617 11.57128906 4.02807617 11.57128906 1.29296875 14.265625 C0.5711718 14.98392487 0.5711718 14.98392487 -0.16520691 15.71673584 C-1.18250666 16.72431214 -2.20580874 17.72585945 -3.23461914 18.72167969 C-4.8088222 20.24643772 -6.36352838 21.7891046 -7.91601562 23.3359375 C-15.5323743 30.84412477 -15.5323743 30.84412477 -19 32 C-17.45680082 28.72165906 -15.59803366 25.77020374 -13.59375 22.75390625 C-12.93246094 21.75166016 -12.27117187 20.74941406 -11.58984375 19.71679688 C-10.19841263 17.61664616 -8.80518709 15.5176832 -7.41015625 13.41992188 C-6.74886719 12.41638672 -6.08757812 11.41285156 -5.40625 10.37890625 C-4.49842773 9.01100952 -4.49842773 9.01100952 -3.57226562 7.61547852 C-2.07810594 5.12992995 -0.98956811 2.7203915 0 0 Z " fill="#707173" transform="translate(139,66)"/>
<path d="M0 0 C0.66 0.33 1.32 0.66 2 1 C-1.47117175 4.59459963 -4.95832899 8.17258897 -8.46142578 11.73608398 C-9.65120615 12.95103716 -10.83646417 14.17043598 -12.01708984 15.39428711 C-13.71328133 17.151006 -15.42500275 18.8911852 -17.140625 20.62890625 C-17.66682434 21.18091202 -18.19302368 21.73291779 -18.73516846 22.301651 C-20.25097656 23.81860352 -20.25097656 23.81860352 -23 26 C-26.86127658 25.93770749 -29.15615911 23.44886299 -32 21 C-30.59493145 18.1898629 -28.89544348 18.1079293 -26 17 C-21.32787374 14.4751267 -16.76453309 11.80800374 -12.75 8.3125 C-9.95566721 5.96272015 -7.27895735 4.56819699 -4 3 C-2.64136599 2.03465478 -1.29656863 1.04722851 0 0 Z " fill="#5D5D5F" transform="translate(97,119)"/>
<path d="M0 0 C0 3.90801308 -1.32166057 5.05509375 -3.6875 8.125 C-6.80201296 12.28317691 -9.47926791 16.41650683 -11.91015625 21 C-13.4286324 23.78659422 -15.22675191 26.3707011 -17 29 C-17.69429379 30.3191582 -18.37530495 31.64649406 -19 33 C-21.5625 30.8125 -21.5625 30.8125 -24 28 C-23.9521056 23.88064985 -22.23138148 21.77632431 -19.37998962 18.92680359 C-18.88205399 18.44951309 -18.38411835 17.9722226 -17.87109375 17.48046875 C-17.36199966 16.97703445 -16.85290558 16.47360016 -16.3283844 15.95491028 C-14.70726789 14.35610535 -13.07277866 12.77180394 -11.4375 11.1875 C-10.33307117 10.10314287 -9.22954463 9.01786592 -8.12695312 7.93164062 C-5.42830552 5.27699088 -2.71758089 2.63525874 0 0 Z " fill="#676869" transform="translate(69,91)"/>
<path d="M0 0 C4.82067865 4.07175507 9.51633873 8.25257665 14.125 12.5625 C14.76445557 13.15949707 15.40391113 13.75649414 16.06274414 14.37158203 C22.52214083 20.43518041 28.78333785 26.68898716 35 33 C32 33 32 33 30.07055664 31.37939453 C29.35762451 30.63802246 28.64469238 29.89665039 27.91015625 29.1328125 C27.12576172 28.32972656 26.34136719 27.52664062 25.53320312 26.69921875 C24.31020508 25.42498047 24.31020508 25.42498047 23.0625 24.125 C21.4539314 22.45638158 19.84082015 20.79212741 18.22265625 19.1328125 C17.15156616 18.01737061 17.15156616 18.01737061 16.05883789 16.87939453 C14.09016449 15.08230597 12.37008209 14.15335045 10 13 C9.38125 12.154375 8.7625 11.30875 8.125 10.4375 C6.16797624 7.72997694 6.16797624 7.72997694 2.875 7.1875 C1.2522459 7.08166821 -0.37379852 7 -2 7 C-2.268125 7.5775 -2.53625 8.155 -2.8125 8.75 C-4 11 -4 11 -5.625 12.875 C-7.43937089 15.67902774 -7.2230809 17.72814677 -7 21 C-9.31 19.02 -11.62 17.04 -14 15 C-9.59156563 9.70987876 -4.92440206 4.81191572 0 0 Z " fill="#6F3E33" transform="translate(117,101)"/>
<path d="M0 0 C2.70578434 1.16467523 3.7185938 2.48072787 5.2409668 4.96459961 C4.3334668 5.45959961 3.4259668 5.95459961 2.4909668 6.46459961 C-6.2677951 11.47969715 -14.46870348 17.37727001 -22.48168945 23.49584961 C-24.7590332 24.96459961 -24.7590332 24.96459961 -27.7590332 24.96459961 C-24.30944065 21.3667601 -20.84064038 17.78903427 -17.35253906 14.22851562 C-16.16865809 13.01444934 -14.99021636 11.79505434 -13.81738281 10.5703125 C-12.13095496 8.81115076 -10.42592396 7.07205062 -8.71606445 5.33569336 C-8.1950264 4.78368759 -7.67398834 4.23168182 -7.13716125 3.66294861 C-3.43351411 -0.04405447 -3.43351411 -0.04405447 0 0 Z " fill="#7E7F80" transform="translate(117.759033203125,45.035400390625)"/>
<path d="M0 0 C2 0 2 0 3.625 1.375 C5 3 5 3 5 5 C5.66 5 6.32 5 7 5 C7 5.99 7 6.98 7 8 C7.556875 8.20625 8.11375 8.4125 8.6875 8.625 C11.2454348 10.14593421 12.68721183 11.97532979 14.515625 14.2890625 C16.79651521 16.91808858 19.43949486 19.08402 22.08203125 21.33984375 C24.51302096 23.44406092 26.75767976 25.69707651 29 28 C29.763125 28.7425 30.52625 29.485 31.3125 30.25 C35.01761674 34.04128224 38.50308767 38.01716437 42 42 C41.505 42.99 41.505 42.99 41 44 C36.12174406 39.14722326 31.24751118 34.29043214 26.37597656 29.4309082 C24.72031222 27.78025417 23.0637491 26.13050111 21.40625 24.48168945 C19.01582384 22.10347401 16.6287121 19.7219736 14.2421875 17.33984375 C13.50757294 16.61039047 12.77295837 15.88093719 12.01608276 15.12937927 C7.79749409 10.91124561 3.7307395 6.65994216 0 2 C0 1.34 0 0.68 0 0 Z " fill="#673A30" transform="translate(110,122)"/>
<path d="M0 0 C1.32 1.32 2.64 2.64 4 4 C0.04 7.96 -3.92 11.92 -8 16 C-8.99 15.01 -9.98 14.02 -11 13 C-9.46356148 9.31930113 -7.21849055 7.01224796 -4.375 4.25 C-3.55773437 3.45078125 -2.74046875 2.6515625 -1.8984375 1.828125 C-0.95871094 0.92320313 -0.95871094 0.92320313 0 0 Z " fill="#683A32" transform="translate(83,70)"/>
<path d="M0 0 C0 0.66 0 1.32 0 2 C-0.66 2 -1.32 2 -2 2 C-2.268125 2.5775 -2.53625 3.155 -2.8125 3.75 C-4 6 -4 6 -5.625 7.875 C-7.43937089 10.67902774 -7.2230809 12.72814677 -7 16 C-9.31 14.02 -11.62 12.04 -14 10 C-10.6083172 5.47775627 -6.20114471 0 0 0 Z " fill="#6A3126" transform="translate(117,106)"/>
<path d="M0 0 C0.99 0.33 1.98 0.66 3 1 C2.34 1 1.68 1 1 1 C1 1.66 1 2.32 1 3 C0.34 3 -0.32 3 -1 3 C-1.2475 3.556875 -1.495 4.11375 -1.75 4.6875 C-4.9017912 10.51831373 -9.73576287 15.04612493 -15 19 C-15.66 19 -16.32 19 -17 19 C-15.60652624 15.84795019 -13.97514921 13.73828227 -11.5234375 11.328125 C-10.51796875 10.33232422 -10.51796875 10.33232422 -9.4921875 9.31640625 C-8.79351562 8.63449219 -8.09484375 7.95257813 -7.375 7.25 C-6.66859375 6.55261719 -5.9621875 5.85523437 -5.234375 5.13671875 C-3.49401297 3.41987512 -1.74915019 1.70788168 0 0 Z " fill="#AEA9AA" transform="translate(89,71)"/>
<path d="M0 0 C-1.92701429 4.68445462 -5.51827134 7.43805671 -9.19921875 10.78125 C-11.28869131 12.82286646 -11.28869131 12.82286646 -10.76953125 15.28125 C-10.51558594 15.8484375 -10.26164062 16.415625 -10 17 C-11.32 16.67 -12.64 16.34 -14 16 C-14 12 -14 12 -11.4453125 8.984375 C-10.34879545 7.89582296 -9.24154486 6.81799943 -8.125 5.75 C-7.56941406 5.19570312 -7.01382813 4.64140625 -6.44140625 4.0703125 C-2.28086515 0 -2.28086515 0 0 0 Z " fill="#2A1E1D" transform="translate(84,68)"/>
<path d="M0 0 C4.26504921 3.37236449 7.59530892 6.76714082 11 11 C11.98290968 12.01680311 12.97334787 13.02738219 14 14 C9.43109978 13.52119873 7.3795105 11.9218589 4.1875 8.6875 C3.00220703 7.51767578 3.00220703 7.51767578 1.79296875 6.32421875 C0 4 0 4 0 0 Z " fill="#2D2A2C" transform="translate(51,124)"/>
<path d="M0 0 C6.51328839 3.81265662 11.84255902 9.06601197 15 16 C14.34 16 13.68 16 13 16 C11.66796875 14.64453125 11.66796875 14.64453125 10.1875 12.8125 C8.2786193 10.49757377 6.40532389 8.41883925 4.25 6.3125 C2.23055561 4.23695993 1.08104997 2.65348629 0 0 Z " fill="#713D33" transform="translate(160,143)"/>
<path d="M0 0 C0.99 0.33 1.98 0.66 3 1 C3 1.66 3 2.32 3 3 C3.61875 3.28875 4.2375 3.5775 4.875 3.875 C7 5 7 5 9 7 C11.58354218 7.16687448 11.58354218 7.16687448 14 7 C13.67 7.99 13.34 8.98 13 10 C9.76351714 10.35142196 8.41221285 10.30933949 5.76171875 8.3203125 C5.07722656 7.59585938 4.39273438 6.87140625 3.6875 6.125 C2.99011719 5.40570313 2.29273437 4.68640625 1.57421875 3.9453125 C0 2 0 2 0 0 Z " fill="#231F20" transform="translate(62,137)"/>
<path d="M0 0 C0.99 0 1.98 0 3 0 C2.44449305 3.59905908 1.25112752 4.99909799 -1.5625 7.25 C-2.20316406 7.77078125 -2.84382813 8.2915625 -3.50390625 8.828125 C-3.99761719 9.21484375 -4.49132812 9.6015625 -5 10 C-5 6.68233477 -4.54749052 5.9296548 -2.6875 3.3125 C-2.25824219 2.68988281 -1.82898438 2.06726563 -1.38671875 1.42578125 C-0.92910156 0.95527344 -0.47148438 0.48476562 0 0 Z " fill="#6B6B6C" transform="translate(126,88)"/>
<path d="M0 0 C0.99 0.33 1.98 0.66 3 1 C1.60667426 4.36720387 0.0210714 5.9859524 -3 8 C-3.66 7.67 -4.32 7.34 -5 7 C-3.70700306 4.11562221 -2.34058637 2.12780579 0 0 Z " fill="#713429" transform="translate(81,74)"/>
<path d="M0 0 C3.07684111 2.02192416 4.92027706 4.54049291 7.1875 7.4375 C4.1875 7.4375 4.1875 7.4375 1.6875 5.0625 C0.8625 4.19625 0.0375 3.33 -0.8125 2.4375 C-1.8025 1.7775 -2.7925 1.1175 -3.8125 0.4375 C-1.8125 -0.5625 -1.8125 -0.5625 0 0 Z " fill="#2F2C2E" transform="translate(119.8125,43.5625)"/>
<path d="M0 0 C0 0.66 0 1.32 0 2 C-0.66 2 -1.32 2 -2 2 C-2.268125 2.61875 -2.53625 3.2375 -2.8125 3.875 C-4 6 -4 6 -7 8 C-6.65930765 4.84859577 -6.41923159 3.39218439 -4.0625 1.1875 C-2 0 -2 0 0 0 Z " fill="#7A3022" transform="translate(117,106)"/>
<path d="M0 0 C1.67542976 0.28604898 3.34385343 0.61781233 5 1 C3.25 4.875 3.25 4.875 1 6 C0.34 4.35 -0.32 2.7 -1 1 C-0.67 0.67 -0.34 0.34 0 0 Z " fill="#61342D" transform="translate(73,80)"/>
<path d="M0 0 C0.33 0.66 0.66 1.32 1 2 C2.32 2 3.64 2 5 2 C5.33 3.98 5.66 5.96 6 8 C3.69 6.02 1.38 4.04 -1 2 C-0.67 1.34 -0.34 0.68 0 0 Z " fill="#673930" transform="translate(104,114)"/>
<path d="M0 0 C0.99 0.33 1.98 0.66 3 1 C2.34 1 1.68 1 1 1 C1 1.66 1 2.32 1 3 C0.34 3 -0.32 3 -1 3 C-1.66 4.32 -2.32 5.64 -3 7 C-3.33 6.01 -3.66 5.02 -4 4 C-2.68 2.68 -1.36 1.36 0 0 Z " fill="#C1BDBF" transform="translate(89,71)"/>
<path d="M0 0 C0.33 0.99 0.66 1.98 1 3 C-0.3125 5.1875 -0.3125 5.1875 -2 7 C-2.66 7 -3.32 7 -4 7 C-3.43628586 3.73045798 -2.50037734 2.17424117 0 0 Z " fill="#BCB2B0" transform="translate(84,76)"/>
<path d="M0 0 C1.98 0 3.96 0 6 0 C5.01 1.485 5.01 1.485 4 3 C2.68 2.67 1.36 2.34 0 2 C0 1.34 0 0.68 0 0 Z " fill="#686869" transform="translate(70,142)"/>
<path d="M0 0 C0.99 0.33 1.98 0.66 3 1 C3 1.66 3 2.32 3 3 C1.02 3.99 1.02 3.99 -1 5 C-0.67 3.35 -0.34 1.7 0 0 Z " fill="#767779" transform="translate(139,66)"/>
<path d="M0 0 C0.99 0.33 1.98 0.66 3 1 C2.34 1.66 1.68 2.32 1 3 C0.67 2.01 0.34 1.02 0 0 Z " fill="#353135" transform="translate(124,49)"/>
</svg>
