<?xml version="1.0" encoding="UTF-8"?>
<svg version="1.1" xmlns="http://www.w3.org/2000/svg" width="54" height="54">
<path d="M0 0 C0.12564518 4.03417692 0.21527462 8.0675633 0.2746582 12.10327148 C0.29946716 13.46968471 0.33332712 14.83597019 0.37719727 16.2019043 C0.67993074 25.88581402 -0.10786078 34.44096727 -5 43 C-7.51080732 45.25027654 -9.93910797 46.63604602 -13 48 C-13.99 48.66 -14.98 49.32 -16 50 C-18.18896484 50.16357422 -18.18896484 50.16357422 -20.7109375 50.0546875 C-21.62617188 50.03019531 -22.54140625 50.00570312 -23.484375 49.98046875 C-25.40395793 49.91042991 -27.32326567 49.8323668 -29.2421875 49.74609375 C-34.92743204 49.53910772 -34.92743204 49.53910772 -39.9375 51.9765625 C-40.618125 52.64429688 -41.29875 53.31203125 -42 54 C-45.625 54.5 -45.625 54.5 -49 54 C-51.36474592 51.94038258 -51.87942167 50.53590369 -52.5625 47.5 C-52 45 -52 45 -49 42.6875 C-48.01 42.130625 -47.02 41.57375 -46 41 C-46.66 40.01 -47.32 39.02 -48 38 C-48.64753793 31.93874383 -48.90716152 26.06832826 -46.4375 20.4375 C-40.48721846 14.48721846 -36.37972964 12.6429147 -27.94140625 11.5234375 C-22.08630293 10.48149348 -17.64775162 7.57519355 -13 4 C-12.34 4 -11.68 4 -11 4 C-10.67 3.01 -10.34 2.02 -10 1 C-6.78548731 -0.60725635 -3.56387464 -0.05748185 0 0 Z " fill="#349047" transform="translate(53,0)"/>
<path d="M0 0 C0.12564518 4.03417692 0.21527462 8.0675633 0.2746582 12.10327148 C0.29946716 13.46968471 0.33332712 14.83597019 0.37719727 16.2019043 C0.67993074 25.88581402 -0.10786078 34.44096727 -5 43 C-7.51080732 45.25027654 -9.93910797 46.63604602 -13 48 C-13.99 48.66 -14.98 49.32 -16 50 C-18.18896484 50.16357422 -18.18896484 50.16357422 -20.7109375 50.0546875 C-21.62617188 50.03019531 -22.54140625 50.00570312 -23.484375 49.98046875 C-25.40395793 49.91042991 -27.32326567 49.8323668 -29.2421875 49.74609375 C-34.92743204 49.53910772 -34.92743204 49.53910772 -39.9375 51.9765625 C-40.618125 52.64429688 -41.29875 53.31203125 -42 54 C-45.625 54.5 -45.625 54.5 -49 54 C-51.36474592 51.94038258 -51.87942167 50.53590369 -52.5625 47.5 C-52 45 -52 45 -49 42.6875 C-48.01 42.130625 -47.02 41.57375 -46 41 C-46.66 40.01 -47.32 39.02 -48 38 C-48.64753793 31.93874383 -48.90716152 26.06832826 -46.4375 20.4375 C-40.48721846 14.48721846 -36.37972964 12.6429147 -27.94140625 11.5234375 C-22.08630293 10.48149348 -17.64775162 7.57519355 -13 4 C-12.34 4 -11.68 4 -11 4 C-10.67 3.01 -10.34 2.02 -10 1 C-6.78548731 -0.60725635 -3.56387464 -0.05748185 0 0 Z M-8 4 C-8 4.66 -8 5.32 -8 6 C-8.515625 6.2475 -9.03125 6.495 -9.5625 6.75 C-11.53771787 7.76293224 -13.46532382 8.86834004 -15.375 10 C-19.2110122 12.18968984 -22.91353818 13.68333632 -27.31640625 14.3515625 C-33.84179687 15.3677302 -38.21114027 17.38720129 -43 22 C-45.96414475 26.44621713 -45.52717312 30.78175012 -45 36 C-43.66829691 38.97984167 -43.66829691 38.97984167 -42 41 C-42 41.66 -42 42.32 -42 43 C-44.31 44.32 -46.62 45.64 -49 47 C-48.01 48.65 -47.02 50.3 -46 52 C-40.01919413 47.77825468 -34.70491579 43.07001809 -29.39379883 38.05175781 C-25.19112558 34.09556279 -25.19112558 34.09556279 -23 33 C-25.78062968 36.60451996 -28.78425086 39.78425086 -32 43 C-32.66 43.99 -33.32 44.98 -34 46 C-28.57759693 48.71120154 -20.66482153 47.79139246 -15.02734375 46.1171875 C-8.88522954 43.02297009 -5.91345045 38.86535134 -3.76171875 32.41015625 C-1.64262205 22.60484439 -2.63762054 11.95818749 -3 2 C-5.32357511 1.81509993 -5.32357511 1.81509993 -8 4 Z " fill="#000000" transform="translate(53,0)"/>
<path d="M0 0 C1.32 0 2.64 0 4 0 C4.66 1.65 5.32 3.3 6 5 C1.545 8.96 1.545 8.96 -3 13 C-4.32 11.68 -5.64 10.36 -7 9 C-2.25 5.125 -2.25 5.125 0 4 C0 2.68 0 1.36 0 0 Z " fill="#347D46" transform="translate(11,39)"/>
<path d="M0 0 C0.66 0 1.32 0 2 0 C2.02917228 3.22914752 2.04685663 6.45826083 2.0625 9.6875 C2.07087891 10.59951172 2.07925781 11.51152344 2.08789062 12.45117188 C2.09111328 13.33740234 2.09433594 14.22363281 2.09765625 15.13671875 C2.10289307 15.94842529 2.10812988 16.76013184 2.11352539 17.59643555 C1.9929791 20.14864673 1.559949 22.51026137 1 25 C0.67 25 0.34 25 0 25 C-0.33 22.36 -0.66 19.72 -1 17 C-0.34 17 0.32 17 1 17 C0.85904936 15.3745692 0.71207913 13.74965949 0.5625 12.125 C0.44068359 10.76761719 0.44068359 10.76761719 0.31640625 9.3828125 C0.13010715 6.98889139 0.13010715 6.98889139 -1 5 C-1.66 4.67 -2.32 4.34 -3 4 C-1.625 2 -1.625 2 0 0 Z " fill="#3AAA4B" transform="translate(48,2)"/>
<path d="M0 0 C0 3.38023517 -0.87455622 5.83468937 -2 9 C-2.66 9 -3.32 9 -4 9 C-2.25 2.25 -2.25 2.25 0 0 Z " fill="#315C3A" transform="translate(34,26)"/>
<path d="M0 0 C0.33 0.99 0.66 1.98 1 3 C-0.32 4.32 -1.64 5.64 -3 7 C-3 3.48283697 -2.17554415 2.62878252 0 0 Z " fill="#377D4A" transform="translate(45,36)"/>
</svg>
