<?xml version="1.0" encoding="UTF-8"?>
<svg version="1.1" xmlns="http://www.w3.org/2000/svg" width="256" height="256">
<path d="M0 0 C1.01191406 -0.020625 2.02382812 -0.04125 3.06640625 -0.0625 C10.24912406 -0.09976442 15.30504731 1.02752366 21.75 4.25 C21.83075665 6.54109597 21.88907731 8.83299267 21.9375 11.125 C21.98970703 13.03925781 21.98970703 13.03925781 22.04296875 14.9921875 C21.94628906 16.06726563 21.84960938 17.14234375 21.75 18.25 C20.76 18.91 19.77 19.57 18.75 20.25 C18.41222851 23.00900757 18.26102021 25.55483257 18.23828125 28.3203125 C18.21135445 29.51465408 18.21135445 29.51465408 18.18388367 30.73312378 C18.12963031 33.2803617 18.09583788 35.82741071 18.0625 38.375 C18.02934007 40.1002868 17.99485166 41.82554861 17.95898438 43.55078125 C17.87389565 47.78371813 17.80715693 52.01659753 17.75 56.25 C18.32282715 56.41798096 18.8956543 56.58596191 19.48583984 56.7590332 C33.57368392 61.13056761 44.20646318 70.75069729 51.39453125 83.52734375 C58.18220739 97.1613791 59.24594871 113.73221183 55.1875 128.4375 C52.90002626 134.6072355 49.6347546 139.96241734 45.75 145.25 C44.99976563 146.31154297 44.99976563 146.31154297 44.234375 147.39453125 C36.63074817 157.12947773 23.87631932 164.37389937 11.75 166.25 C-5.6498128 167.73957056 -19.90707719 165.78765758 -34.25 155.25 C-35.31154297 154.49976563 -35.31154297 154.49976563 -36.39453125 153.734375 C-46.12947773 146.13074817 -53.37389937 133.37631932 -55.25 121.25 C-56.73957056 103.8501872 -54.78765758 89.59292281 -44.25 75.25 C-43.74984375 74.54230469 -43.2496875 73.83460937 -42.734375 73.10546875 C-36.70011863 65.37979204 -27.30431804 59.73331971 -18.25 56.25 C-18.1759579 51.15970056 -18.12144992 46.06971308 -18.08520508 40.97900391 C-18.0700991 39.24652651 -18.04961306 37.51408746 -18.02368164 35.78173828 C-17.98737679 33.29450022 -17.97029235 30.80776674 -17.95703125 28.3203125 C-17.94154739 27.54317902 -17.92606354 26.76604553 -17.91011047 25.96536255 C-17.87430435 23.55264162 -17.87430435 23.55264162 -18.25 20.25 C-19.24 19.59 -20.23 18.93 -21.25 18.25 C-21.54296875 14.9921875 -21.54296875 14.9921875 -21.4375 11.125 C-21.39689453 9.20300781 -21.39689453 9.20300781 -21.35546875 7.2421875 C-21.32066406 6.25476562 -21.28585938 5.26734375 -21.25 4.25 C-13.84593642 0.37969404 -8.25514309 0.04143108 0 0 Z " fill="#5E82B9" transform="translate(127.25,42.75)"/>
<path d="M0 0 C2.54232342 -0.08152344 5.08199202 -0.14073716 7.625 -0.1875 C8.33785156 -0.21263672 9.05070312 -0.23777344 9.78515625 -0.26367188 C14.62276416 -0.33024446 17.74738338 0.44440547 22 3 C22 5.31 22 7.62 22 10 C19.03 10 16.06 10 13 10 C15.69222273 13.06038288 15.69222273 13.06038288 18.65698242 14.1496582 C21 16 21 16 21.56762695 19.82885742 C21.56683624 21.42128066 21.53863458 23.01384162 21.48828125 24.60546875 C21.48120651 25.44467361 21.47413177 26.28387848 21.46684265 27.14851379 C21.43885167 29.82908259 21.37610801 32.50756267 21.3125 35.1875 C21.28742305 37.00452712 21.26460882 38.82158699 21.24414062 40.63867188 C21.18900999 45.09325278 21.10270783 49.54627229 21 54 C20.34 54 19.68 54 19 54 C19 54.99 19 55.98 19 57 C19.99 57 20.98 57 22 57 C21.875 58.875 21.875 58.875 21 61 C18.0625 62.1875 18.0625 62.1875 15 63 C14.01 63.495 14.01 63.495 13 64 C11 61 11 61 11.375 58.3125 C11.58125 57.549375 11.7875 56.78625 12 56 C9.03 56.495 9.03 56.495 6 57 C5.67 58.98 5.34 60.96 5 63 C4.2575 62.690625 3.515 62.38125 2.75 62.0625 C1.38875 61.5365625 1.38875 61.5365625 0 61 C-0.639375 60.71125 -1.27875 60.4225 -1.9375 60.125 C-5.35002351 59.91818039 -7.30299652 62.04335042 -10 64 C-11.093125 64.556875 -12.18625 65.11375 -13.3125 65.6875 C-22.58096701 70.94853671 -29.4415721 79.91944123 -32.3125 90.125 C-32.97243197 93.84461657 -33.07685861 97.23392833 -33 101 C-33.495 101.495 -33.495 101.495 -34 102 C-34.12746422 104.18467741 -34.17589681 106.37413809 -34.1875 108.5625 C-34.20876953 110.35880859 -34.20876953 110.35880859 -34.23046875 112.19140625 C-33.97571639 116.40129692 -33.13292559 119.9474401 -32 124 C-30.17082031 123.7834375 -30.17082031 123.7834375 -28.3046875 123.5625 C-15.38542332 122.17357098 -2.54340662 121.77796719 10.4375 121.75 C11.23730286 121.74500488 12.03710571 121.74000977 12.86114502 121.73486328 C26.76729611 121.66364282 40.89607614 121.85202991 54 127 C54.495 129.475 54.495 129.475 55 132 C44.23171299 139.17885801 24.88910296 136.30223445 12.60180664 136.26074219 C8.81054805 136.24999447 5.0197601 136.26069958 1.22851562 136.2734375 C-1.21614686 136.27211622 -3.66080906 136.26955447 -6.10546875 136.265625 C-7.22140915 136.26967346 -8.33734955 136.27372192 -9.48710632 136.27789307 C-16.83469153 136.23467624 -23.79230831 135.4210481 -31 134 C-29.99806563 137.79303725 -29.18975773 140.71536341 -27 144 C-27 144.99 -27 145.98 -27 147 C-30.88862987 145.73882275 -32.89375599 144.54735833 -35 141 C-35 140.34 -35 139.68 -35 139 C-35.63010986 138.9086377 -36.26021973 138.81727539 -36.90942383 138.72314453 C-37.59931396 138.48450684 -38.2892041 138.24586914 -39 138 C-40.11825723 135.24504822 -40.94485278 132.73096807 -41.6875 129.875 C-41.89955078 129.12734375 -42.11160156 128.3796875 -42.33007812 127.609375 C-46.42384729 112.78399014 -46.76490023 97.87340094 -39.421875 84.0234375 C-37.72467743 81.24829013 -35.92900732 78.61852483 -34 76 C-33.21496094 74.92105469 -33.21496094 74.92105469 -32.4140625 73.8203125 C-26.0331869 65.82087333 -17.29225156 60.90354104 -8 57 C-7.92589273 51.35834639 -7.87141833 45.71697553 -7.83520508 40.07495117 C-7.8201102 38.15530462 -7.79963227 36.2356926 -7.77368164 34.31616211 C-7.73732891 31.55834436 -7.72028088 28.8009822 -7.70703125 26.04296875 C-7.69154739 25.18350143 -7.67606354 24.32403412 -7.66011047 23.43852234 C-7.65977058 22.23761711 -7.65977058 22.23761711 -7.65942383 21.01245117 C-7.65276199 20.3085173 -7.64610016 19.60458344 -7.63923645 18.87931824 C-8.1048555 16.45377836 -9.22341598 15.65026074 -11 14 C-11.29296875 11.73828125 -11.29296875 11.73828125 -11.1875 9.3125 C-11.14689453 8.10013672 -11.14689453 8.10013672 -11.10546875 6.86328125 C-11.07066406 6.24839844 -11.03585938 5.63351563 -11 5 C-7.14243493 2.84694043 -4.44870215 1.60746746 0 2 C0 1.34 0 0.68 0 0 Z " fill="#ABC1DA" transform="translate(119,44)"/>
<path d="M0 0 C1.32 0 2.64 0 4 0 C4 0.66 4 1.32 4 2 C3.01 2.66 2.02 3.32 1 4 C0.66222851 6.75900757 0.51102021 9.30483257 0.48828125 12.0703125 C0.46135445 13.26465408 0.46135445 13.26465408 0.43388367 14.48312378 C0.37963031 17.0303617 0.34583788 19.57741071 0.3125 22.125 C0.27934007 23.8502868 0.24485166 25.57554861 0.20898438 27.30078125 C0.12389565 31.53371813 0.05715693 35.76659753 0 40 C0.57282715 40.16798096 1.1456543 40.33596191 1.73583984 40.5090332 C15.82368392 44.88056761 26.45646318 54.50069729 33.64453125 67.27734375 C40.43220739 80.9113791 41.49594871 97.48221183 37.4375 112.1875 C35.15002626 118.3572355 31.8847546 123.71241734 28 129 C27.24976563 130.06154297 27.24976563 130.06154297 26.484375 131.14453125 C18.88074817 140.87947773 6.12631932 148.12389937 -6 150 C-25.74032213 151.68993787 -40.92044868 148.35472026 -56.375 135.5 C-59.85968774 132.33796853 -62.43147829 128.93304887 -65 125 C-64.505 124.01 -64.505 124.01 -64 123 C-60.58841744 124.13719419 -59.88145399 125.04342944 -58 128 C-58 128.66 -58 129.32 -58 130 C-56.35 130.66 -54.7 131.32 -53 132 C-54.6327851 128.25332798 -54.6327851 128.25332798 -57 125 C-57.04080783 123.00041636 -57.04254356 120.99954746 -57 119 C-56.28334671 119.0702388 -55.56669342 119.1404776 -54.82832336 119.21284485 C-47.2384027 119.90758907 -39.72462367 120.16037088 -32.10546875 120.16796875 C-30.91504471 120.17129715 -29.72462067 120.17462555 -28.49812317 120.17805481 C-25.99639264 120.18308431 -23.4946555 120.18546438 -20.99291992 120.18530273 C-17.20805594 120.18748813 -13.42348445 120.20568408 -9.63867188 120.22460938 C9.58549781 121.25424437 9.58549781 121.25424437 28 117 C27.47731534 114.23723823 26.89130413 111.6739124 26 109 C26.66 109 27.32 109 28 109 C28 107.68 28 106.36 28 105 C29.9375 105.375 29.9375 105.375 32 106 C32.33 106.66 32.66 107.32 33 108 C35.44025097 103.25506756 35.2983189 98.82733511 35.25 93.625 C35.25773437 92.8 35.26546875 91.975 35.2734375 91.125 C35.25733724 86.05341683 34.78571779 81.76610594 33 77 C32.34 76.67 31.68 76.34 31 76 C31.185625 74.824375 31.185625 74.824375 31.375 73.625 C30.46148963 64.7943998 24.07304224 58.49632758 17.58203125 52.96875 C13.91772569 50.1747863 10.13302821 48.01266358 6 46 C4.61610921 45.31018305 3.23285742 44.6190833 1.85009766 43.92700195 C1.12923981 43.56629105 0.40838196 43.20558014 -0.33432007 42.8339386 C-0.88399445 42.55873886 -1.43366882 42.28353912 -2 42 C-2.04934926 36.34001954 -2.08569529 30.68016364 -2.10986328 25.02001953 C-2.11993582 23.09356506 -2.13359443 21.16712592 -2.15087891 19.24072266 C-2.17507241 16.47554748 -2.18647036 13.710574 -2.1953125 10.9453125 C-2.20563507 10.0806839 -2.21595764 9.2160553 -2.22659302 8.32522583 C-2.22699106 6.21546479 -2.12265243 4.10619282 -2 2 C-1.34 1.34 -0.68 0.68 0 0 Z " fill="#0B62A9" transform="translate(145,59)"/>
<path d="M0 0 C0.89647244 3.20737919 0.82447146 4.7937221 0 8 C0 9.216875 0 10.43375 0 11.6875 C0 12.780625 0 13.87375 0 15 C-0.33 15.33 -0.66 15.66 -1 16 C-1.12746422 18.18467741 -1.17589681 20.37413809 -1.1875 22.5625 C-1.20167969 23.76003906 -1.21585937 24.95757812 -1.23046875 26.19140625 C-0.97571639 30.40129692 -0.13292559 33.9474401 1 38 C2.21945313 37.855625 3.43890625 37.71125 4.6953125 37.5625 C17.61457668 36.17357098 30.45659338 35.77796719 43.4375 35.75 C44.23730286 35.74500488 45.03710571 35.74000977 45.86114502 35.73486328 C59.76729611 35.66364282 73.89607614 35.85202991 87 41 C87.495 43.475 87.495 43.475 88 46 C77.23171299 53.17885801 57.88910296 50.30223445 45.60180664 50.26074219 C41.81054805 50.24999447 38.0197601 50.26069958 34.22851562 50.2734375 C31.78385314 50.27211622 29.33919094 50.26955447 26.89453125 50.265625 C25.77859085 50.26967346 24.66265045 50.27372192 23.51289368 50.27789307 C16.16530847 50.23467624 9.20769169 49.4210481 2 48 C3.00193437 51.79303725 3.81024227 54.71536341 6 58 C6 58.99 6 59.98 6 61 C2.11137013 59.73882275 0.10624401 58.54735833 -2 55 C-2 54.34 -2 53.68 -2 53 C-3.32 52.67 -4.64 52.34 -6 52 C-6.33 50.02 -6.66 48.04 -7 46 C-5.68 46.99 -4.36 47.98 -3 49 C-2.97294271 47.22925083 -2.95357805 45.45838289 -2.9375 43.6875 C-2.92589844 42.70136719 -2.91429688 41.71523437 -2.90234375 40.69921875 C-2.87670138 37.90036151 -2.87670138 37.90036151 -4 35 C-4.28788245 30.79651915 -4.27782198 26.58722346 -4.3125 22.375 C-4.35600586 20.64830078 -4.35600586 20.64830078 -4.40039062 18.88671875 C-4.45389331 11.66797233 -3.62841594 6.29308196 0 0 Z " fill="#59B1F9" transform="translate(86,130)"/>
<path d="M0 0 C1.32 0 2.64 0 4 0 C4 0.66 4 1.32 4 2 C3.01 2.66 2.02 3.32 1 4 C0.66222851 6.75900757 0.51102021 9.30483257 0.48828125 12.0703125 C0.46135445 13.26465408 0.46135445 13.26465408 0.43388367 14.48312378 C0.37963031 17.0303617 0.34583788 19.57741071 0.3125 22.125 C0.27934007 23.8502868 0.24485166 25.57554861 0.20898438 27.30078125 C0.12389565 31.53371813 0.05715693 35.76659753 0 40 C0.57282715 40.16798096 1.1456543 40.33596191 1.73583984 40.5090332 C15.82368392 44.88056761 26.45646318 54.50069729 33.64453125 67.27734375 C40.43220739 80.9113791 41.49594871 97.48221183 37.4375 112.1875 C35.15002626 118.3572355 31.8847546 123.71241734 28 129 C27.24976563 130.06154297 27.24976563 130.06154297 26.484375 131.14453125 C18.88074817 140.87947773 6.12631932 148.12389937 -6 150 C-25.74032213 151.68993787 -40.92044868 148.35472026 -56.375 135.5 C-59.85968774 132.33796853 -62.43147829 128.93304887 -65 125 C-64.505 124.01 -64.505 124.01 -64 123 C-60.58841744 124.13719419 -59.88145399 125.04342944 -58 128 C-58 128.66 -58 129.32 -58 130 C-57.01 130.33 -56.02 130.66 -55 131 C-53.85537305 132.17829245 -52.7107821 133.35661992 -51.56640625 134.53515625 C-45.49272794 140.21502998 -38.95583319 143.00495926 -31 145 C-29.89269531 145.350625 -28.78539062 145.70125 -27.64453125 146.0625 C-17.70044574 148.62046412 -6.91790762 147.13305078 3 145 C3.74894531 144.87496094 4.49789062 144.74992188 5.26953125 144.62109375 C5.84058594 144.41613281 6.41164063 144.21117187 7 144 C7.33 143.01 7.66 142.02 8 141 C9.99609375 139.39453125 9.99609375 139.39453125 12.4375 137.8125 C13.24058594 137.28269531 14.04367188 136.75289062 14.87109375 136.20703125 C17 135 17 135 19 135 C19.25007813 134.43796875 19.50015625 133.8759375 19.7578125 133.296875 C21.1921382 130.64472559 22.93090666 128.5535672 24.875 126.25 C33.23347081 115.89276443 35.14437391 106.43654201 35.25 93.3125 C35.2593457 92.50449951 35.26869141 91.69649902 35.27832031 90.86401367 C35.25170426 85.88322973 34.74373884 81.68476315 33 77 C32.34 76.67 31.68 76.34 31 76 C31.185625 74.824375 31.185625 74.824375 31.375 73.625 C30.46148963 64.7943998 24.07304224 58.49632758 17.58203125 52.96875 C13.91772569 50.1747863 10.13302821 48.01266358 6 46 C4.61610921 45.31018305 3.23285742 44.6190833 1.85009766 43.92700195 C1.12923981 43.56629105 0.40838196 43.20558014 -0.33432007 42.8339386 C-0.88399445 42.55873886 -1.43366882 42.28353912 -2 42 C-2.04934926 36.34001954 -2.08569529 30.68016364 -2.10986328 25.02001953 C-2.11993582 23.09356506 -2.13359443 21.16712592 -2.15087891 19.24072266 C-2.17507241 16.47554748 -2.18647036 13.710574 -2.1953125 10.9453125 C-2.20563507 10.0806839 -2.21595764 9.2160553 -2.22659302 8.32522583 C-2.22699106 6.21546479 -2.12265243 4.10619282 -2 2 C-1.34 1.34 -0.68 0.68 0 0 Z " fill="#051627" transform="translate(145,59)"/>
<path d="M0 0 C1.01191406 -0.020625 2.02382812 -0.04125 3.06640625 -0.0625 C10.24912406 -0.09976442 15.30504731 1.02752366 21.75 4.25 C21.75 8.21 21.75 12.17 21.75 16.25 C20.1 16.91 18.45 17.57 16.75 18.25 C16.42 30.46 16.09 42.67 15.75 55.25 C15.09 55.25 14.43 55.25 13.75 55.25 C13.720271 53.58445068 13.720271 53.58445068 13.68994141 51.88525391 C13.61398919 47.77385398 13.5252564 43.66281282 13.43261719 39.55175781 C13.39428435 37.77090527 13.35943911 35.98997416 13.328125 34.20898438 C13.28256729 31.65205766 13.22455893 29.0956739 13.1640625 26.5390625 C13.15251129 25.74005524 13.14096008 24.94104797 13.12905884 24.11782837 C13.17741056 19.71542788 13.17741056 19.71542788 10.75 16.25 C9.76 15.755 9.76 15.755 8.75 15.25 C6.75 14.25 6.75 14.25 4.75 12.25 C2.17938689 11.60232207 2.17938689 11.60232207 -0.25 11.25 C-0.25 10.92 -0.25 10.59 -0.25 10.25 C4.5833472 10.16666643 8.98692563 10.29738513 13.75 11.25 C13.255 7.785 13.255 7.785 12.75 4.25 C8.3100324 2.0956962 4.27581226 1.83254154 -0.5625 1.625 C-1.67334961 1.56699219 -1.67334961 1.56699219 -2.80664062 1.5078125 C-4.62071309 1.41418295 -6.43532116 1.33103149 -8.25 1.25 C-8.25 1.91 -8.25 2.57 -8.25 3.25 C-13.695 4.735 -13.695 4.735 -19.25 6.25 C-18.755 11.695 -18.755 11.695 -18.25 17.25 C-17.26 17.58 -16.27 17.91 -15.25 18.25 C-15.25 31.45 -15.25 44.65 -15.25 58.25 C-19.54 60.56 -23.83 62.87 -28.25 65.25 C-40.52310546 73.95534225 -49.41847857 86.24500324 -52.25 101.25 C-52.95383292 110.67053292 -52.217253 119.56682466 -49.125 128.5 C-48.15534856 131.54747596 -48.09864492 134.07154339 -48.25 137.25 C-47.59 137.58 -46.93 137.91 -46.25 138.25 C-47.24 138.25 -48.23 138.25 -49.25 138.25 C-50.06542431 136.16780951 -50.87723189 134.08420239 -51.6875 132 C-52.13996094 130.83984375 -52.59242187 129.6796875 -53.05859375 128.484375 C-57.43005664 116.6169282 -56.95974637 100.88834759 -52.578125 89.0703125 C-50.24570511 84.11735026 -47.48869858 79.65822863 -44.25 75.25 C-43.74984375 74.54230469 -43.2496875 73.83460937 -42.734375 73.10546875 C-36.70011863 65.37979204 -27.30431804 59.73331971 -18.25 56.25 C-18.1759579 51.15970056 -18.12144992 46.06971308 -18.08520508 40.97900391 C-18.0700991 39.24652651 -18.04961306 37.51408746 -18.02368164 35.78173828 C-17.98737679 33.29450022 -17.97029235 30.80776674 -17.95703125 28.3203125 C-17.94154739 27.54317902 -17.92606354 26.76604553 -17.91011047 25.96536255 C-17.87430435 23.55264162 -17.87430435 23.55264162 -18.25 20.25 C-19.24 19.59 -20.23 18.93 -21.25 18.25 C-21.54296875 14.9921875 -21.54296875 14.9921875 -21.4375 11.125 C-21.39689453 9.20300781 -21.39689453 9.20300781 -21.35546875 7.2421875 C-21.32066406 6.25476562 -21.28585938 5.26734375 -21.25 4.25 C-13.84593642 0.37969404 -8.25514309 0.04143108 0 0 Z " fill="#5171A7" transform="translate(127.25,42.75)"/>
<path d="M0 0 C0.66 0 1.32 0 2 0 C2.12383064 5.32014516 2.21444676 10.63944714 2.2746582 15.96069336 C2.2997639 17.76976132 2.33385595 19.57872822 2.37719727 21.38745117 C2.43802579 23.99162751 2.46624809 26.59446031 2.48828125 29.19921875 C2.51408768 30.00461594 2.5398941 30.81001312 2.56648254 31.63981628 C2.56860315 35.90966975 2.40776969 37.49275271 -0.36279297 40.93920898 C-2.97088944 42.97725215 -5.57725769 44.71159667 -8.4375 46.375 C-18.82748253 52.86525718 -26.08901345 64.03503365 -29 76 C-29.37153212 80.40418126 -29.32917467 84.771038 -29.25 89.1875 C-29.24484375 90.34958984 -29.2396875 91.51167969 -29.234375 92.70898438 C-29.18905831 97.63434177 -29.01297 102.17486046 -28 107 C-28.12109375 109.45703125 -28.12109375 109.45703125 -28.4375 111.8125 C-28.59025391 112.99779297 -28.59025391 112.99779297 -28.74609375 114.20703125 C-28.82988281 114.79871094 -28.91367188 115.39039063 -29 116 C-32 115 -32 115 -33.3515625 112.3046875 C-37.70654628 100.57562077 -37.70654628 100.57562077 -38 95 C-38.061875 93.98550781 -38.12375 92.97101563 -38.1875 91.92578125 C-38.66458565 78.37356696 -35.00398844 67.86498856 -27 57 C-26.47664063 56.28070313 -25.95328125 55.56140625 -25.4140625 54.8203125 C-19.00496966 46.78549855 -10.31448101 41.99192043 -1 38 C-0.67 25.46 -0.34 12.92 0 0 Z " fill="#B6CEEE" transform="translate(112,63)"/>
<path d="M0 0 C1.43861294 0.08746284 2.87597508 0.19565348 4.3125 0.3125 C5.11300781 0.37050781 5.91351563 0.42851563 6.73828125 0.48828125 C9.40079309 1.0906803 10.23027928 1.98334151 12 4 C14.09989652 5.17574711 14.09989652 5.17574711 16 6 C16 6.33 16 6.66 16 7 C14.35 7 12.7 7 11 7 C11 19.21 11 31.42 11 44 C7.7 44 4.4 44 1 44 C1 31.13 1 18.26 1 5 C-1.97 4.505 -1.97 4.505 -5 4 C-4.34 3.34 -3.68 2.68 -3 2 C-2.01 2 -1.02 2 0 2 C0 1.34 0 0.68 0 0 Z " fill="#819BC6" transform="translate(123,53)"/>
<path d="M0 0 C1.32 0 2.64 0 4 0 C4 12.21 4 24.42 4 37 C7.3 37 10.6 37 14 37 C14 24.79 14 12.58 14 0 C15.65 0 17.3 0 19 0 C19 12.21 19 24.42 19 37 C13 39 13 39 0 39 C0 26.13 0 13.26 0 0 Z " fill="#A0BFE4" transform="translate(120,60)"/>
<path d="M0 0 C0.33 0 0.66 0 1 0 C1 12.54 1 25.08 1 38 C-3.29 40.31 -7.58 42.62 -12 45 C-24.27310546 53.70534225 -33.16847857 65.99500324 -36 81 C-36.70383292 90.42053292 -35.967253 99.31682466 -32.875 108.25 C-31.90534856 111.29747596 -31.84864492 113.82154339 -32 117 C-31.34 117.33 -30.68 117.66 -30 118 C-30.99 118 -31.98 118 -33 118 C-33.81542431 115.91780951 -34.62723189 113.83420239 -35.4375 111.75 C-35.88996094 110.58984375 -36.34242187 109.4296875 -36.80859375 108.234375 C-41.18005664 96.3669282 -40.70974637 80.63834759 -36.328125 68.8203125 C-33.99570511 63.86735026 -31.23869858 59.40822863 -28 55 C-27.49984375 54.29230469 -26.9996875 53.58460937 -26.484375 52.85546875 C-20.45011863 45.12979204 -11.05431804 39.48331971 -2 36 C-1.96241577 34.41747437 -1.96241577 34.41747437 -1.92407227 32.80297852 C-1.83015891 28.90229372 -1.72989966 25.00179375 -1.62768555 21.10131836 C-1.58427561 19.41060701 -1.54260511 17.71985009 -1.50268555 16.02905273 C-1.44512906 13.60386394 -1.38139351 11.17890585 -1.31640625 8.75390625 C-1.29969376 7.99348526 -1.28298126 7.23306427 -1.26576233 6.44960022 C-1.11387171 1.11387171 -1.11387171 1.11387171 0 0 Z " fill="#898C91" transform="translate(111,63)"/>
<path d="M0 0 C0.6811084 -0.01772461 1.3622168 -0.03544922 2.06396484 -0.05371094 C6.7373062 -0.04688688 9.86873256 0.94742935 13.875 3.3125 C13.875 4.3025 13.875 5.2925 13.875 6.3125 C14.535 6.6425 15.195 6.9725 15.875 7.3125 C13.75589012 9.51213605 12.05824501 11.19872644 8.91992188 11.50048828 C6.6400577 11.37181961 4.39251257 11.14431245 2.125 10.875 C-3.96364684 10.32359612 -8.69756894 10.13034482 -14.421875 12.609375 C-16.69041499 13.54592821 -18.70399813 13.5467905 -21.125 13.3125 C-21.455 11.0025 -21.785 8.6925 -22.125 6.3125 C-15.08767272 1.03450454 -8.67092137 0.13810341 0 0 Z " fill="#94B8E1" transform="translate(128.125,110.6875)"/>
<path d="M0 0 C0.99 0 1.98 0 3 0 C3 12.87 3 25.74 3 39 C12.53394496 38.27925895 12.53394496 38.27925895 22 37 C22 24.79 22 12.58 22 0 C22.33 0 22.66 0 23 0 C23 12.54 23 25.08 23 38 C22.34 38 21.68 38 21 38 C21 38.99 21 39.98 21 41 C21.99 41 22.98 41 24 41 C23.875 42.875 23.875 42.875 23 45 C20.0625 46.1875 20.0625 46.1875 17 47 C16.01 47.495 16.01 47.495 15 48 C13 45 13 45 13.375 42.3125 C13.58125 41.549375 13.7875 40.78625 14 40 C11.03 40.495 11.03 40.495 8 41 C7.67 42.98 7.34 44.96 7 47 C3.54074837 45.7508258 0.85306797 44.32472205 -2 42 C-1.34 42 -0.68 42 0 42 C-0.33 41.34 -0.66 40.68 -1 40 C-1.09915494 37.09476034 -1.13981711 34.21399273 -1.1328125 31.30859375 C-1.13424759 30.01792747 -1.13424759 30.01792747 -1.13571167 28.70118713 C-1.13639265 26.88127571 -1.13454409 25.06136185 -1.13037109 23.24145508 C-1.12501517 20.44542021 -1.1303222 17.64954552 -1.13671875 14.85351562 C-1.13605808 13.08854131 -1.13477715 11.3235671 -1.1328125 9.55859375 C-1.13483673 8.71695175 -1.13686096 7.87530975 -1.13894653 7.00816345 C-1.11495472 1.11495472 -1.11495472 1.11495472 0 0 Z " fill="#7DA7D8" transform="translate(117,60)"/>
<path d="M0 0 C1.32 0 2.64 0 4 0 C4 0.66 4 1.32 4 2 C3.01 2.66 2.02 3.32 1 4 C0.66222851 6.75900757 0.51102021 9.30483257 0.48828125 12.0703125 C0.46135445 13.26465408 0.46135445 13.26465408 0.43388367 14.48312378 C0.37963031 17.0303617 0.34583788 19.57741071 0.3125 22.125 C0.27934007 23.8502868 0.24485166 25.57554861 0.20898438 27.30078125 C0.12389565 31.53371813 0.05715693 35.76659753 0 40 C0.57282715 40.16798096 1.1456543 40.33596191 1.73583984 40.5090332 C17.07645517 45.26930933 27.61892052 55.99194513 35 70 C36.82822961 73.87991416 37.23745838 76.89797408 37.1953125 81.17578125 C37.18886719 82.33271484 37.18242187 83.48964844 37.17578125 84.68164062 C37.15902344 85.87982422 37.14226562 87.07800781 37.125 88.3125 C37.11597656 89.53001953 37.10695312 90.74753906 37.09765625 92.00195312 C37.07413037 95.00150274 37.04125653 98.00065044 37 101 C34.99130126 97.32908328 34.84189311 94.89215509 35 90.6875 C35.07943013 85.6436867 34.9118051 81.67330136 33 77 C32.01 76.505 32.01 76.505 31 76 C31.185625 74.824375 31.185625 74.824375 31.375 73.625 C30.46148963 64.7943998 24.07304224 58.49632758 17.58203125 52.96875 C13.91772569 50.1747863 10.13302821 48.01266358 6 46 C4.61610921 45.31018305 3.23285742 44.6190833 1.85009766 43.92700195 C1.12923981 43.56629105 0.40838196 43.20558014 -0.33432007 42.8339386 C-0.88399445 42.55873886 -1.43366882 42.28353912 -2 42 C-2.04934926 36.34001954 -2.08569529 30.68016364 -2.10986328 25.02001953 C-2.11993582 23.09356506 -2.13359443 21.16712592 -2.15087891 19.24072266 C-2.17507241 16.47554748 -2.18647036 13.710574 -2.1953125 10.9453125 C-2.20563507 10.0806839 -2.21595764 9.2160553 -2.22659302 8.32522583 C-2.22699106 6.21546479 -2.12265243 4.10619282 -2 2 C-1.34 1.34 -0.68 0.68 0 0 Z " fill="#203351" transform="translate(145,59)"/>
<path d="M0 0 C0.66 0 1.32 0 2 0 C2.12383064 5.32014516 2.21444676 10.63944714 2.2746582 15.96069336 C2.2997639 17.76976132 2.33385595 19.57872822 2.37719727 21.38745117 C2.43802579 23.99162751 2.46624809 26.59446031 2.48828125 29.19921875 C2.51408768 30.00461594 2.5398941 30.81001312 2.56648254 31.63981628 C2.56860315 35.90966975 2.40776969 37.49275271 -0.36279297 40.93920898 C-2.97088944 42.97725215 -5.57725769 44.71159667 -8.4375 46.375 C-15.12651795 50.53546157 -18.81064321 55.0866898 -22.9375 61.6875 C-25.72424076 66.01914479 -28.35161562 67.86174319 -33 70 C-31.53161757 59.81309688 -23.89983298 51.98968338 -16 46 C-11.1343595 42.54259682 -6.57357982 40.38867706 -1 38 C-0.67 25.46 -0.34 12.92 0 0 Z " fill="#E1EAF4" transform="translate(112,63)"/>
<path d="M0 0 C0.89647244 3.20737919 0.82447146 4.7937221 0 8 C0 9.216875 0 10.43375 0 11.6875 C0 12.780625 0 13.87375 0 15 C-0.33 15.33 -0.66 15.66 -1 16 C-1.44364779 23.60391683 -1.327772 30.72571249 1 38 C2.65 38.33 4.3 38.66 6 39 C5.67 39.66 5.34 40.32 5 41 C4.34 41 3.68 41 3 41 C2.505 43.475 2.505 43.475 2 46 C2.99 46.66 3.98 47.32 5 48 C4.01 48 3.02 48 2 48 C3.00193437 51.79303725 3.81024227 54.71536341 6 58 C6 58.99 6 59.98 6 61 C2.11137013 59.73882275 0.10624401 58.54735833 -2 55 C-2 54.34 -2 53.68 -2 53 C-3.32 52.67 -4.64 52.34 -6 52 C-6.33 50.02 -6.66 48.04 -7 46 C-5.68 46.99 -4.36 47.98 -3 49 C-2.97294271 47.22925083 -2.95357805 45.45838289 -2.9375 43.6875 C-2.92589844 42.70136719 -2.91429688 41.71523437 -2.90234375 40.69921875 C-2.87670138 37.90036151 -2.87670138 37.90036151 -4 35 C-4.28788245 30.79651915 -4.27782198 26.58722346 -4.3125 22.375 C-4.35600586 20.64830078 -4.35600586 20.64830078 -4.40039062 18.88671875 C-4.45389331 11.66797233 -3.62841594 6.29308196 0 0 Z " fill="#9ABCE6" transform="translate(86,130)"/>
<path d="M0 0 C1.9375 0.375 1.9375 0.375 4 1 C4.495 1.99 4.495 1.99 5 3 C5.66 2.67 6.32 2.34 7 2 C5.82611674 9.39546454 3.48152522 14.0612305 -1 20 C-1.58910156 20.83917969 -2.17820313 21.67835938 -2.78515625 22.54296875 C-7.02975702 28.30412093 -11.37787995 31.96586339 -17.58203125 35.52734375 C-19.76950945 36.85962045 -21.24370539 38.17159945 -23 40 C-25.5 41.25 -25.5 41.25 -28 42 C-28.99 41.67 -29.98 41.34 -31 41 C-25.25 38 -25.25 38 -23 38 C-22.773125 37.236875 -22.54625 36.47375 -22.3125 35.6875 C-20.71903821 32.4246973 -19.23661664 31.53739291 -16 30 C-15.34 30 -14.68 30 -14 30 C-13.77570313 29.42765625 -13.55140625 28.8553125 -13.3203125 28.265625 C-11.6219841 25.35133367 -9.54119931 23.80092255 -6.875 21.75 C-5.96492188 21.04359375 -5.05484375 20.3371875 -4.1171875 19.609375 C-3.41851562 19.07828125 -2.71984375 18.5471875 -2 18 C-2.33 17.34 -2.66 16.68 -3 16 C-3.68707031 16.144375 -4.37414062 16.28875 -5.08203125 16.4375 C-5.98308594 16.623125 -6.88414062 16.80875 -7.8125 17 C-8.70582031 17.185625 -9.59914062 17.37125 -10.51953125 17.5625 C-13 18 -13 18 -16 18 C-16 17.34 -16 16.68 -16 16 C-10.72 14.68 -5.44 13.36 0 12 C-0.83462035 7.28941438 -0.83462035 7.28941438 -2 4 C-1.34 4 -0.68 4 0 4 C0 2.68 0 1.36 0 0 Z " fill="#054477" transform="translate(173,164)"/>
<path d="M0 0 C0.33 0 0.66 0 1 0 C3.43986748 9.65864894 3.40539931 16.99766227 -1 26 C-1.66 26 -2.32 26 -3 26 C-2.505 27.485 -2.505 27.485 -2 29 C-2.81082031 28.79503906 -3.62164062 28.59007812 -4.45703125 28.37890625 C-5.56433594 28.10949219 -6.67164063 27.84007812 -7.8125 27.5625 C-8.89144531 27.29566406 -9.97039062 27.02882812 -11.08203125 26.75390625 C-21.98834001 24.65528452 -33.13836819 24.7259382 -44.20874023 24.52319336 C-46.27617622 24.48367616 -48.34303604 24.43220086 -50.41015625 24.37890625 C-51.62840088 24.3538501 -52.84664551 24.32879395 -54.10180664 24.30297852 C-57 24 -57 24 -59 22 C-52.77870992 20.23449876 -46.59633396 20.86505637 -40.26171875 21.77734375 C-35.52651771 22.24350344 -30.75255846 22.07128838 -26 22 C-25.67 20.68 -25.34 19.36 -25 18 C-22.03 17.67 -19.06 17.34 -16 17 C-17 21 -17 21 -18 23 C-17.360625 22.938125 -16.72125 22.87625 -16.0625 22.8125 C-11.76507326 23.07560776 -8.02123832 24.52817421 -4 26 C-4 25.34 -4 24.68 -4 24 C-3.34 24 -2.68 24 -2 24 C-1.34 16.08 -0.68 8.16 0 0 Z " fill="#3374B2" transform="translate(174,142)"/>
<path d="M0 0 C3.96 0.33 7.92 0.66 12 1 C9.07735566 2.46132217 7.07536854 3.34099246 4 4 C7.98291628 9.00417686 12.01461436 12.72979364 17.2421875 16.421875 C17.82226562 16.94265625 18.40234375 17.4634375 19 18 C19 18.99 19 19.98 19 21 C19.94875 21.0825 20.8975 21.165 21.875 21.25 C22.90625 21.4975 23.9375 21.745 25 22 C26.1953125 24.046875 26.1953125 24.046875 27 26 C16.63672203 25.66570071 9.56452369 20.76825804 2 14 C2.66 13.67 3.32 13.34 4 13 C2.3672149 9.25332798 2.3672149 9.25332798 0 6 C0 4.02 0 2.04 0 0 Z " fill="#277BBD" transform="translate(88,178)"/>
<path d="M0 0 C2.54232342 -0.08152344 5.08199202 -0.14073716 7.625 -0.1875 C8.33785156 -0.21263672 9.05070313 -0.23777344 9.78515625 -0.26367188 C14.62276416 -0.33024446 17.74738338 0.44440547 22 3 C22 5.31 22 7.62 22 10 C16.25 10.125 16.25 10.125 14 9 C12.46331135 8.77532169 10.92031946 8.59203195 9.375 8.4375 C8.55773437 8.35371094 7.74046875 8.26992188 6.8984375 8.18359375 C6.27195312 8.12300781 5.64546875 8.06242187 5 8 C5 7.67 5 7.34 5 7 C7.64 6.67 10.28 6.34 13 6 C9.37 6 5.74 6 2 6 C1.34 7.32 0.68 8.64 0 10 C-0.66 10 -1.32 10 -2 10 C-2.185625 8.576875 -2.185625 8.576875 -2.375 7.125 C-2.71687177 3.91332809 -2.71687177 3.91332809 -5 2 C-3.35 2 -1.7 2 0 2 C0 1.34 0 0.68 0 0 Z " fill="#86A4CF" transform="translate(119,44)"/>
<path d="M0 0 C2.79828356 0.38597015 3.8205884 0.80136573 5.75 2.9375 C7 5 7 5 7 7 C7.99 7.33 8.98 7.66 10 8 C11.14462695 9.17829245 12.2892179 10.35661992 13.43359375 11.53515625 C19.50727206 17.21502998 26.04416681 20.00495926 34 22 C35.02996094 22.35320312 36.05992188 22.70640625 37.12109375 23.0703125 C42.12958256 24.2707358 46.81101545 24.21610636 51.9375 24.125 C52.90751953 24.11597656 53.87753906 24.10695312 54.87695312 24.09765625 C57.25156407 24.07426107 59.62564776 24.04148176 62 24 C59.04790328 25.68972274 56.94262929 26.24881473 53.55078125 26.23046875 C52.70193359 26.22853516 51.85308594 26.22660156 50.97851562 26.22460938 C49.65883789 26.20624023 49.65883789 26.20624023 48.3125 26.1875 C47.45205078 26.18685547 46.59160156 26.18621094 45.70507812 26.18554688 C30.04834972 26.07935957 18.6091898 22.04971078 7 11 C0 3.1454219 0 3.1454219 0 0 Z " fill="#11324B" transform="translate(80,182)"/>
<path d="M0 0 C0.99 0 1.98 0 3 0 C3 12.21 3 24.42 3 37 C1.02 37.495 1.02 37.495 -1 38 C-1.02464928 32.74894558 -1.04283568 27.49792455 -1.05493164 22.24682617 C-1.05997218 20.45905979 -1.06680454 18.67129755 -1.07543945 16.88354492 C-1.0875173 14.31948832 -1.09323094 11.75548603 -1.09765625 9.19140625 C-1.10281754 8.3872377 -1.10797882 7.58306915 -1.11329651 6.75453186 C-1.11349215 4.83598285 -1.06201983 2.91754632 -1 1 C-0.67 0.67 -0.34 0.34 0 0 Z " fill="#809FC5" transform="translate(117,60)"/>
<path d="M0 0 C1.32 0 2.64 0 4 0 C4 12.21 4 24.42 4 37 C2.02 37.495 2.02 37.495 0 38 C0 25.46 0 12.92 0 0 Z " fill="#96B2D6" transform="translate(120,60)"/>
<path d="M0 0 C0.99 0.33 1.98 0.66 3 1 C2.71382812 1.70253906 2.42765625 2.40507813 2.1328125 3.12890625 C-3.60279537 17.6657055 -5.0524579 31.29289939 0.125 46.25 C1.09465144 49.29747596 1.15135508 51.82154339 1 55 C1.66 55.33 2.32 55.66 3 56 C2.01 56 1.02 56 0 56 C-0.81542431 53.91780951 -1.62723189 51.83420239 -2.4375 49.75 C-2.88996094 48.58984375 -3.34242187 47.4296875 -3.80859375 46.234375 C-8.6014946 33.22282778 -7.48707252 16.61626164 -2 4 C-1.34953179 2.6586897 -0.68891629 1.3219745 0 0 Z " fill="#7D848E" transform="translate(78,125)"/>
<path d="M0 0 C0.99 0.33 1.98 0.66 3 1 C1.76302083 2.52994792 0.52604167 4.05989583 -0.7109375 5.58984375 C-4.29328767 12.28775301 -4.36319184 20.12823906 -4.625 27.5625 C-4.66367188 28.47580078 -4.70234375 29.38910156 -4.7421875 30.33007812 C-4.83530252 32.55319924 -4.92112166 34.77633613 -5 37 C-4.34 37.33 -3.68 37.66 -3 38 C-4.65 37.67 -6.3 37.34 -8 37 C-10.1269028 30.22049733 -11.14117297 23.06946985 -10 16 C-8.015625 14.26171875 -8.015625 14.26171875 -6 13 C-5.32041397 10.60280568 -5.32041397 10.60280568 -5 8 C-4.36562656 6.3207762 -3.70710678 4.64991582 -3 3 C-2.34 3 -1.68 3 -1 3 C-0.67 2.01 -0.34 1.02 0 0 Z " fill="#7F98BA" transform="translate(94,131)"/>
<path d="M0 0 C1.01191406 -0.020625 2.02382812 -0.04125 3.06640625 -0.0625 C10.24912406 -0.09976442 15.30504731 1.02752366 21.75 4.25 C21.80399736 5.70792884 21.84279177 7.16642712 21.875 8.625 C21.89820313 9.43710937 21.92140625 10.24921875 21.9453125 11.0859375 C21.75 13.25 21.75 13.25 19.75 15.25 C19.75 12.28 19.75 9.31 19.75 6.25 C18.82767578 5.94255859 18.82767578 5.94255859 17.88671875 5.62890625 C14.5078125 4.50260417 11.12890625 3.37630208 7.75 2.25 C5.01710707 2.02202438 2.29957796 1.83331813 -0.4375 1.6875 C-1.18708984 1.64431641 -1.93667969 1.60113281 -2.70898438 1.55664062 C-4.55578375 1.45077315 -6.40286834 1.3499024 -8.25 1.25 C-8.25 1.91 -8.25 2.57 -8.25 3.25 C-13.695 4.735 -13.695 4.735 -19.25 6.25 C-18.92 9.88 -18.59 13.51 -18.25 17.25 C-17.26 17.58 -16.27 17.91 -15.25 18.25 C-15.58 19.24 -15.91 20.23 -16.25 21.25 C-18.73046875 20.19921875 -18.73046875 20.19921875 -21.25 18.25 C-21.73828125 14.89453125 -21.73828125 14.89453125 -21.5625 11.0625 C-21.49482422 9.15404297 -21.49482422 9.15404297 -21.42578125 7.20703125 C-21.36777344 6.23121094 -21.30976562 5.25539063 -21.25 4.25 C-13.84593642 0.37969404 -8.25514309 0.04143108 0 0 Z " fill="#55667A" transform="translate(127.25,42.75)"/>
<path d="M0 0 C1.32 0 2.64 0 4 0 C4 0.66 4 1.32 4 2 C3.01 2.66 2.02 3.32 1 4 C0.66222851 6.75900757 0.51102021 9.30483257 0.48828125 12.0703125 C0.46135445 13.26465408 0.46135445 13.26465408 0.43388367 14.48312378 C0.37963031 17.0303617 0.34583788 19.57741071 0.3125 22.125 C0.27934007 23.8502868 0.24485166 25.57554861 0.20898438 27.30078125 C0.12389565 31.53371813 0.05715693 35.76659753 0 40 C0.6199585 40.19263428 1.23991699 40.38526855 1.87866211 40.58374023 C2.69085205 40.84356689 3.50304199 41.10339355 4.33984375 41.37109375 C5.14542725 41.62560303 5.95101074 41.8801123 6.78100586 42.14233398 C9.58366565 43.22559329 11.21461729 44.59361461 13 47 C13 47.66 13 48.32 13 49 C12.44699219 48.71253906 11.89398438 48.42507812 11.32421875 48.12890625 C8.0082157 46.5182762 4.57959444 45.23512815 1.14453125 43.90234375 C-1 43 -1 43 -2 42 C-2.11353016 39.06634254 -2.16418708 36.15711538 -2.16796875 33.22265625 C-2.17129715 32.34097275 -2.17462555 31.45928925 -2.17805481 30.55088806 C-2.18312783 28.68212406 -2.18546302 26.81335096 -2.18530273 24.94458008 C-2.18748808 22.07813656 -2.20563655 19.2120784 -2.22460938 16.34570312 C-2.22754339 14.53385549 -2.22952813 12.72200602 -2.23046875 10.91015625 C-2.23765427 10.0486647 -2.24483978 9.18717316 -2.25224304 8.29957581 C-2.2288216 2.2288216 -2.2288216 2.2288216 0 0 Z " fill="#2B476F" transform="translate(145,59)"/>
<path d="M0 0 C3.96 0.33 7.92 0.66 12 1 C8 3 8 3 4 3 C4.48251672 5.60559028 5.16434591 7.26952729 6.5625 9.5625 C8 12 8 12 8 15 C8.9590625 15.1546875 8.9590625 15.1546875 9.9375 15.3125 C10.9584375 15.6528125 10.9584375 15.6528125 12 16 C12.33 16.99 12.66 17.98 13 19 C10.33644766 19.39169887 8.60775627 19.40564529 6.33203125 17.88671875 C4.8489112 16.63610683 3.42045648 15.32135486 2 14 C2.66 13.67 3.32 13.34 4 13 C2.3672149 9.25332798 2.3672149 9.25332798 0 6 C0 4.02 0 2.04 0 0 Z " fill="#428DCE" transform="translate(88,178)"/>
<path d="M0 0 C0.33 0 0.66 0 1 0 C1 2.31 1 4.62 1 7 C3.31 7 5.62 7 8 7 C7.01 7.33 6.02 7.66 5 8 C6.00193437 11.79303725 6.81024227 14.71536341 9 18 C9 18.99 9 19.98 9 21 C5.11137013 19.73882275 3.10624401 18.54735833 1 15 C1 14.34 1 13.68 1 13 C-0.32 12.67 -1.64 12.34 -3 12 C-3.33 10.02 -3.66 8.04 -4 6 C-2.68 6.99 -1.36 7.98 0 9 C0 6.03 0 3.06 0 0 Z " fill="#7BACD5" transform="translate(83,170)"/>
<path d="M0 0 C0.66 0.33 1.32 0.66 2 1 C2 1.66 2 2.32 2 3 C0.33244698 4.26401706 -1.38609462 5.46109266 -3.125 6.625 C-8.19681176 10.20855812 -11.68384623 13.78890121 -15 19 C-15.66 19.99 -16.32 20.98 -17 22 C-17.99 22 -18.98 22 -20 22 C-16.25672877 11.77316807 -8.86476067 5.88312326 0 0 Z " fill="#92959A" transform="translate(99,104)"/>
<path d="M0 0 C0.33 0 0.66 0 1 0 C2.33257403 16.70842825 2.33257403 16.70842825 1 25 C0.34 25 -0.32 25 -1 25 C-4.82205972 8.96099939 -4.82205972 8.96099939 -1.5625 1.875 C-1.046875 1.25625 -0.53125 0.6375 0 0 Z " fill="#C9D9EF" transform="translate(77,143)"/>
<path d="M0 0 C0.66 0 1.32 0 2 0 C2.16771068 4.64455904 2.32825993 9.28928955 2.48217773 13.93432617 C2.53554679 15.51447204 2.59087216 17.09455311 2.64819336 18.67456055 C2.73024686 20.94565863 2.80526189 23.21689686 2.87890625 25.48828125 C2.90594131 26.19463211 2.93297638 26.90098297 2.96083069 27.6287384 C3.05545931 30.73867939 2.99373539 33.01879384 2 36 C0 34 0 34 -0.22705078 30.65185547 C-0.22673375 29.22359367 -0.21541361 27.79530788 -0.1953125 26.3671875 C-0.1924826 25.61535187 -0.18965271 24.86351624 -0.18673706 24.08889771 C-0.17552874 21.68410422 -0.15042352 19.27968119 -0.125 16.875 C-0.11497102 15.24609912 -0.10584503 13.61719242 -0.09765625 11.98828125 C-0.07558735 7.99204444 -0.04105351 3.99608506 0 0 Z " fill="#A3B7D8" transform="translate(134,60)"/>
<path d="M0 0 C0.33 0 0.66 0 1 0 C1 12.21 1 24.42 1 37 C1.66 37 2.32 37 3 37 C3.33 37.99 3.66 38.98 4 40 C5.86022072 41.23277127 5.86022072 41.23277127 8.0625 42.1875 C8.79597656 42.53167969 9.52945313 42.87585938 10.28515625 43.23046875 C11.13400391 43.61138672 11.13400391 43.61138672 12 44 C9.36749612 45.31625194 8.19820944 44.74813658 5.375 44.0625 C4.55773437 43.86785156 3.74046875 43.67320313 2.8984375 43.47265625 C1.95871094 43.23869141 1.95871094 43.23869141 1 43 C1 42.01 1 41.02 1 40 C0.01 40 -0.98 40 -2 40 C-2 39.01 -2 38.02 -2 37 C-1.34 37 -0.68 37 0 37 C0 24.79 0 12.58 0 0 Z " fill="#6287BC" transform="translate(140,61)"/>
<path d="M0 0 C1.9375 0.375 1.9375 0.375 4 1 C4.33 1.66 4.66 2.32 5 3 C5.66 2.67 6.32 2.34 7 2 C5.25740319 11.59453303 5.25740319 11.59453303 2 15 C0.68 14.34 -0.64 13.68 -2 13 C-1.34 12.67 -0.68 12.34 0 12 C-0.52268466 9.23723823 -1.10869587 6.6739124 -2 4 C-1.34 4 -0.68 4 0 4 C0 2.68 0 1.36 0 0 Z " fill="#1A4882" transform="translate(173,164)"/>
<path d="M0 0 C0.68078613 -0.01756348 1.36157227 -0.03512695 2.06298828 -0.05322266 C6.73676077 -0.04753818 9.86847327 0.94727628 13.875 3.3125 C13.875 4.3025 13.875 5.2925 13.875 6.3125 C14.535 6.6425 15.195 6.9725 15.875 7.3125 C14.885 7.9725 13.895 8.6325 12.875 9.3125 C12.545 7.6625 12.215 6.0125 11.875 4.3125 C1.81648814 2.60041287 -7.99313392 3.50540967 -18.125 4.3125 C-13.44949056 -0.36300944 -6.2362136 0.0869109 0 0 Z " fill="#80AADA" transform="translate(128.125,110.6875)"/>
<path d="M0 0 C2.74492018 4.74675173 2.33027557 9.27099962 2.3125 14.625 C2.32861328 15.57246094 2.34472656 16.51992187 2.36132812 17.49609375 C2.36586889 24.13469061 1.25206425 29.76102366 -1 36 C-2.21242575 32.36272276 -1.92024685 29.24455928 -1.66015625 25.48828125 C-1.59144569 24.39594429 -1.59144569 24.39594429 -1.52134705 23.28153992 C-1.37392486 20.95813326 -1.2183175 18.63535726 -1.0625 16.3125 C-0.96104861 14.73636279 -0.86013072 13.16019113 -0.75976562 11.58398438 C-0.51269691 7.72222954 -0.25828653 3.86102012 0 0 Z " fill="#0C1728" transform="translate(182,138)"/>
<path d="M0 0 C1.43861294 0.08746284 2.87597508 0.19565348 4.3125 0.3125 C5.11300781 0.37050781 5.91351563 0.42851563 6.73828125 0.48828125 C9.41960113 1.09493566 10.21143634 1.97095719 12 4 C12.99 4.66 13.98 5.32 15 6 C2.35771221 6.20067123 2.35771221 6.20067123 -3 5 C-3.66 4.34 -4.32 3.68 -5 3 C-3.35 2.67 -1.7 2.34 0 2 C0 1.34 0 0.68 0 0 Z " fill="#768ABB" transform="translate(123,53)"/>
<path d="M0 0 C0 3.86695678 -1.41909971 6.5088452 -3 10 C-3.99 10 -4.98 10 -6 10 C-6.33 10.99 -6.66 11.98 -7 13 C-7.66 13 -8.32 13 -9 13 C-9.33 13.66 -9.66 14.32 -10 15 C-9.88541307 13.56163249 -9.75790884 12.12429034 -9.625 10.6875 C-9.55539063 9.88699219 -9.48578125 9.08648437 -9.4140625 8.26171875 C-9 6 -9 6 -7 3 C-6.34 3 -5.68 3 -5 3 C-3.31243867 2.03567924 -1.64333504 1.03789581 0 0 Z " fill="#D0DEF1" transform="translate(86,128)"/>
<path d="M0 0 C0.66 0 1.32 0 2 0 C8.40565241 10.84385444 7.52897474 21.80591161 7 34 C4.99130126 30.32908328 4.84189311 27.89215509 5 23.6875 C5.07943013 18.6436867 4.9118051 14.67330136 3 10 C2.34 9.67 1.68 9.34 1 9 C1.020625 8.071875 1.04125 7.14375 1.0625 6.1875 C1.15769604 2.97713989 1.15769604 2.97713989 0 0 Z " fill="#293D65" transform="translate(175,126)"/>
<path d="M0 0 C0.556875 0.226875 1.11375 0.45375 1.6875 0.6875 C1.15382813 0.94402344 0.62015625 1.20054688 0.0703125 1.46484375 C-9.30178809 6.2806117 -16.67914 12.81216534 -22.15625 21.83984375 C-23.3125 23.6875 -23.3125 23.6875 -25.3125 25.6875 C-23.95968813 16.28462241 -16.97025752 9.90964992 -9.7421875 4.37890625 C-8.94039062 3.82074219 -8.13859375 3.26257813 -7.3125 2.6875 C-6.46945313 2.09839844 -5.62640625 1.50929688 -4.7578125 0.90234375 C-2.3125 -0.3125 -2.3125 -0.3125 0 0 Z " fill="#8AB0DA" transform="translate(112.3125,104.3125)"/>
<path d="M0 0 C2.60444348 -0.05394705 5.20776998 -0.09364469 7.8125 -0.125 C8.55048828 -0.14175781 9.28847656 -0.15851562 10.04882812 -0.17578125 C13.91246426 -0.21074628 15.70903668 -0.19397555 19 2 C13.06 2.33 7.12 2.66 1 3 C1 4.98 1 6.96 1 9 C0.01 9.33 -0.98 9.66 -2 10 C-2.185625 8.576875 -2.185625 8.576875 -2.375 7.125 C-2.71687177 3.91332809 -2.71687177 3.91332809 -5 2 C-3.35 2 -1.7 2 0 2 C0 1.34 0 0.68 0 0 Z " fill="#7992B1" transform="translate(119,44)"/>
<path d="M0 0 C5.49660457 -0.19286332 9.81952275 0.09696754 15 2 C15.33 2.66 15.66 3.32 16 4 C16.99 4.66 17.98 5.32 19 6 C18.34 6.66 17.68 7.32 17 8 C13.4353342 7.61463072 10.21872231 6.56586491 7 5 C6.34 4.01 5.68 3.02 5 2 C2.43717258 1.27034634 2.43717258 1.27034634 0 1 C0 0.67 0 0.34 0 0 Z " fill="#677EB1" transform="translate(127,53)"/>
<path d="M0 0 C0.33 0 0.66 0 1 0 C1 2.31 1 4.62 1 7 C1.66 7 2.32 7 3 7 C7.59225513 18.52164009 7.59225513 18.52164009 7 24 C7.66 24.33 8.32 24.66 9 25 C8.01 25 7.02 25 6 25 C5.18457569 22.91780951 4.37276811 20.83420239 3.5625 18.75 C3.11003906 17.58984375 2.65757813 16.4296875 2.19140625 15.234375 C0.20099347 9.83089375 -0.09547974 5.72878418 0 0 Z " fill="#505864" transform="translate(72,156)"/>
<path d="M0 0 C2.79828356 0.38597015 3.8205884 0.80136573 5.75 2.9375 C7 5 7 5 7 7 C7.99 7.33 8.98 7.66 10 8 C14.66666667 12.33333333 14.66666667 12.33333333 16 15 C9.95025451 14.01228645 7.28750098 11.77247879 3.4453125 7.04296875 C1.85470899 4.79462919 0.74726402 2.65693874 0 0 Z " fill="#334759" transform="translate(80,182)"/>
<path d="M0 0 C0.33 0 0.66 0 1 0 C1.33 12.54 1.66 25.08 2 38 C1.34 38 0.68 38 0 38 C0 38.66 0 39.32 0 40 C-0.99 40 -1.98 40 -3 40 C-2.67854004 39.1754834 -2.35708008 38.3509668 -2.02587891 37.50146484 C-0.88552185 33.60927042 -0.651075 29.99572223 -0.5859375 25.9765625 C-0.56657135 25.23038666 -0.5472052 24.48421082 -0.5272522 23.71542358 C-0.46787935 21.35206223 -0.4212422 18.98865103 -0.375 16.625 C-0.33678116 15.01430268 -0.2977272 13.40362494 -0.2578125 11.79296875 C-0.16221324 7.86213984 -0.078028 3.93121537 0 0 Z " fill="#A3BCD8" transform="translate(115,64)"/>
<path d="M0 0 C-3 2 -3 2 -5 2 C-4.67 5.63 -4.34 9.26 -4 13 C-3.01 13.33 -2.02 13.66 -1 14 C-1.33 14.99 -1.66 15.98 -2 17 C-4.48046875 15.94921875 -4.48046875 15.94921875 -7 14 C-7.48828125 10.64453125 -7.48828125 10.64453125 -7.3125 6.8125 C-7.24482422 4.90404297 -7.24482422 4.90404297 -7.17578125 2.95703125 C-7.11777344 1.98121094 -7.05976562 1.00539062 -7 0 C-4.3333581 -1.33332095 -2.83319697 -0.67102033 0 0 Z " fill="#81878D" transform="translate(113,47)"/>
<path d="M0 0 C0.33 0 0.66 0 1 0 C3.43986748 9.65864894 3.40539931 16.99766227 -1 26 C-1.33 26 -1.66 26 -2 26 C-1.93941406 25.29617187 -1.87882813 24.59234375 -1.81640625 23.8671875 C-1.14169719 15.91600079 -0.55346597 7.96048926 0 0 Z " fill="#395A95" transform="translate(174,142)"/>
<path d="M0 0 C-0.50603992 2.16874252 -0.99983813 3.99967627 -2 6 C-4.31 6 -6.62 6 -9 6 C-9 4.33333333 -9 2.66666667 -9 1 C-5.8035914 -0.06546953 -3.34252724 -0.07427838 0 0 Z " fill="#395F98" transform="translate(158,159)"/>
<path d="M0 0 C1.32 0 2.64 0 4 0 C4 0.66 4 1.32 4 2 C3.01 2.66 2.02 3.32 1 4 C0.48815355 7.00414569 0.48815355 7.00414569 0.48828125 10.5390625 C0.45283203 11.84101562 0.41738281 13.14296875 0.38085938 14.484375 C0.35775769 15.86457809 0.33497536 17.24478657 0.3125 18.625 C0.27933555 20.01305352 0.2448467 21.40107607 0.20898438 22.7890625 C0.12625885 26.19262707 0.05718743 29.5959259 0 33 C-0.33 33 -0.66 33 -1 33 C-1.02465392 28.46102295 -1.04283789 23.92208457 -1.05493164 19.38305664 C-1.0599714 17.83780234 -1.0668032 16.29255284 -1.07543945 14.74731445 C-1.08752076 12.53074971 -1.09323173 10.31424782 -1.09765625 8.09765625 C-1.10281754 7.4028566 -1.10797882 6.70805695 -1.11329651 5.99220276 C-1.11349277 4.3277067 -1.06189129 2.66334501 -1 1 C-0.67 0.67 -0.34 0.34 0 0 Z " fill="#3B597E" transform="translate(145,59)"/>
<path d="M0 0 C2.97 0.495 2.97 0.495 6 1 C5.67 1.66 5.34 2.32 5 3 C4.34 3 3.68 3 3 3 C2.67 4.65 2.34 6.3 2 8 C0.68 8.33 -0.64 8.66 -2 9 C-2 6.69 -2 4.38 -2 2 C-1.34 2 -0.68 2 0 2 C0 1.34 0 0.68 0 0 Z " fill="#7FB7F0" transform="translate(86,168)"/>
<path d="M0 0 C0 3 0 3 -1.3984375 4.71875 C-6.56577229 9.37547859 -11.21360707 11.539813 -18 13 C-14.56333712 9.3087695 -11.19448742 6.80286125 -6.4375 5.0625 C-3.62311508 3.83571683 -2.03873864 2.26526516 0 0 Z " fill="#041B2F" transform="translate(170,189)"/>
<path d="M0 0 C5.402626 4.44922141 8.61030548 10.46876722 11 17 C10.6640625 19.37109375 10.6640625 19.37109375 10 21 C9.3291288 19.3767313 8.66342971 17.75132422 8 16.125 C7.62875 15.22007812 7.2575 14.31515625 6.875 13.3828125 C6 11 6 11 6 9 C5.01 8.67 4.02 8.34 3 8 C0.2332241 5.02827774 0 4.25809375 0 0 Z " fill="#0E1A2C" transform="translate(171,117)"/>
<path d="M0 0 C0.66 0 1.32 0 2 0 C1.67 2.31 1.34 4.62 1 7 C5.455 6.505 5.455 6.505 10 6 C9.67 6.66 9.34 7.32 9 8 C6.71484375 8.4140625 6.71484375 8.4140625 3.9375 8.625 C3.01839844 8.69976562 2.09929687 8.77453125 1.15234375 8.8515625 C0.08693359 8.92503906 0.08693359 8.92503906 -1 9 C-1.625 5.625 -1.625 5.625 -2 2 C-1.34 1.34 -0.68 0.68 0 0 Z " fill="#87B0DC" transform="translate(108,115)"/>
<path d="M0 0 C3.73487777 0.4979837 5.81237635 0.87491756 9 3 C9.36328125 5.09375 9.36328125 5.09375 9.3125 7.5 C9.30863281 8.2940625 9.30476562 9.088125 9.30078125 9.90625 C9 12 9 12 7 14 C7 11.03 7 8.06 7 5 C4.525 4.01 4.525 4.01 2 3 C2 2.34 2 1.68 2 1 C1.34 0.67 0.68 0.34 0 0 Z " fill="#2A456B" transform="translate(140,44)"/>
<path d="M0 0 C1.3357457 3.77371512 0.72408671 6.85831347 0.0625 10.75 C-0.13214844 11.92046875 -0.32679687 13.0909375 -0.52734375 14.296875 C-0.68332031 15.18890625 -0.83929688 16.0809375 -1 17 C-1.33 17 -1.66 17 -2 17 C-2.24875561 14.73122896 -2.47339246 12.45980265 -2.6875 10.1875 C-2.81511719 8.92292969 -2.94273438 7.65835938 -3.07421875 6.35546875 C-3 3 -3 3 -1.51953125 1.05078125 C-1.01808594 0.70402344 -0.51664062 0.35726562 0 0 Z M-5 2 C-4.34 2.99 -3.68 3.98 -3 5 C-3.875 7.6875 -3.875 7.6875 -5 10 C-5.98120464 6.94736336 -5.98120464 5.05263664 -5 2 Z " fill="#BFD4EE" transform="translate(80,138)"/>
<path d="M0 0 C0.99 0 1.98 0 3 0 C2.6740051 3.04261908 2.02104739 3.9801219 -0.25 6.125 C-2.83905437 7.89026434 -4.99557143 9.13029699 -8 10 C-8.99 9.67 -9.98 9.34 -11 9 C-5.25 6 -5.25 6 -3 6 C-2.690625 5.195625 -2.38125 4.39125 -2.0625 3.5625 C-1 1 -1 1 0 0 Z " fill="#074271" transform="translate(153,196)"/>
<path d="M0 0 C0.66 0.33 1.32 0.66 2 1 C2 1.66 2 2.32 2 3 C-1.90741833 6.02509806 -6.33138019 8.39516194 -11 10 C-9.54144353 6.31353859 -7.69770955 4.83856029 -4.375 2.75 C-3.55773437 2.22921875 -2.74046875 1.7084375 -1.8984375 1.171875 C-1.27195312 0.78515625 -0.64546875 0.3984375 0 0 Z " fill="#989C9F" transform="translate(99,104)"/>
<path d="M0 0 C1.31823302 0.59155331 2.62947051 1.19871463 3.9375 1.8125 C5.03384766 2.31716797 5.03384766 2.31716797 6.15234375 2.83203125 C8 4 8 4 9 7 C6.33644766 7.39169887 4.60775627 7.40564529 2.33203125 5.88671875 C0.8489112 4.63610683 -0.57954352 3.32135486 -2 2 C-1.34 1.34 -0.68 0.68 0 0 Z " fill="#5092C3" transform="translate(92,190)"/>
<path d="M0 0 C0.99 0.33 1.98 0.66 3 1 C3 1.66 3 2.32 3 3 C4.32 3.66 5.64 4.32 7 5 C6.1875 7.4375 6.1875 7.4375 5 10 C4.01 10.33 3.02 10.66 2 11 C1.34 10.34 0.68 9.68 0 9 C0.66 8.67 1.32 8.34 2 8 C1.47731534 5.23723823 0.89130413 2.6739124 0 0 Z " fill="#0B5391" transform="translate(171,168)"/>
<path d="M0 0 C0 2.31 0 4.62 0 7 C-1.98 7.99 -1.98 7.99 -4 9 C-4 6.36 -4 3.72 -4 1 C-2 0 -2 0 0 0 Z " fill="#D5DFEB" transform="translate(112,48)"/>
<path d="M0 0 C0.99 0.33 1.98 0.66 3 1 C0.69 4.3 -1.62 7.6 -4 11 C-4.66 10.34 -5.32 9.68 -6 9 C-5.01 7.02 -4.02 5.04 -3 3 C-2.34 3 -1.68 3 -1 3 C-0.67 2.01 -0.34 1.02 0 0 Z " fill="#7D9EC4" transform="translate(94,131)"/>
<path d="M0 0 C0.33 0 0.66 0 1 0 C1 4.62 1 9.24 1 14 C-0.32 14.33 -1.64 14.66 -3 15 C-3 13.02 -3 11.04 -3 9 C-2.34 9 -1.68 9 -1 9 C-0.67 6.03 -0.34 3.06 0 0 Z " fill="#8AADD7" transform="translate(123,83)"/>
<path d="M0 0 C4.9723422 1.49170266 9.41845739 3.60457417 14 6 C11.36749612 7.31625194 10.19820944 6.74813658 7.375 6.0625 C6.55773437 5.86785156 5.74046875 5.67320313 4.8984375 5.47265625 C3.95871094 5.23869141 3.95871094 5.23869141 3 5 C3 4.01 3 3.02 3 2 C2.01 2 1.02 2 0 2 C0 1.34 0 0.68 0 0 Z " fill="#6695CF" transform="translate(138,99)"/>
<path d="M0 0 C0.33 0.99 0.66 1.98 1 3 C-0.43359375 5.04296875 -0.43359375 5.04296875 -2.4375 7.1875 C-3.09621094 7.90292969 -3.75492188 8.61835938 -4.43359375 9.35546875 C-5.20896484 10.16951172 -5.20896484 10.16951172 -6 11 C-6.99 10.67 -7.98 10.34 -9 10 C-8.34 10 -7.68 10 -7 10 C-6.773125 9.46375 -6.54625 8.9275 -6.3125 8.375 C-4.56617944 5.21499137 -2.3597151 2.7323017 0 0 Z " fill="#0A2F4E" transform="translate(171,184)"/>
<path d="M0 0 C0.53625 0.226875 1.0725 0.45375 1.625 0.6875 C0.635 0.6875 -0.355 0.6875 -1.375 0.6875 C-1.49875 1.326875 -1.6225 1.96625 -1.75 2.625 C-1.95625 3.305625 -2.1625 3.98625 -2.375 4.6875 C-3.365 5.1825 -3.365 5.1825 -4.375 5.6875 C-4.375 5.0275 -4.375 4.3675 -4.375 3.6875 C-6.355 4.6775 -6.355 4.6775 -8.375 5.6875 C-8.375 4.6975 -8.375 3.7075 -8.375 2.6875 C-2.95961538 -0.38942308 -2.95961538 -0.38942308 0 0 Z " fill="#05569A" transform="translate(158.375,179.3125)"/>
<path d="M0 0 C0.66 0.99 1.32 1.98 2 3 C1 6 1 6 -0.625 7.1875 C-3.80382728 8.27499354 -6.66661533 8.1282071 -10 8 C-10 7.67 -10 7.34 -10 7 C-8.329375 6.87625 -8.329375 6.87625 -6.625 6.75 C-2.96930692 6.42291127 -2.96930692 6.42291127 -1.625 4.0625 C-1.41875 3.381875 -1.2125 2.70125 -1 2 C-0.67 1.34 -0.34 0.68 0 0 Z " fill="#557FAD" transform="translate(99,160)"/>
<path d="M0 0 C0.33 2.31 0.66 4.62 1 7 C-2 7 -2 7 -5 5 C-4.34 5 -3.68 5 -3 5 C-3.33 3.68 -3.66 2.36 -4 1 C-2 0 -2 0 0 0 Z " fill="#73A6D9" transform="translate(120,97)"/>
<path d="M0 0 C0.66 0 1.32 0 2 0 C0.7580393 3.43927579 -0.55740284 6.25207819 -3 9 C-3.66 9 -4.32 9 -5 9 C-3.7580393 5.56072421 -2.44259716 2.74792181 0 0 Z " fill="#D4E5F8" transform="translate(89,120)"/>
<path d="M0 0 C0 3.86695678 -1.41909971 6.5088452 -3 10 C-3.66 10 -4.32 10 -5 10 C-4.3001048 6.85047161 -3.34839851 3.9347497 -2 1 C-1.34 0.67 -0.68 0.34 0 0 Z " fill="#BDD6F1" transform="translate(86,128)"/>
<path d="M0 0 C0.99 0 1.98 0 3 0 C3 1.98 3 3.96 3 6 C1.68 6 0.36 6 -1 6 C-1.042721 4.33388095 -1.04063832 2.66617115 -1 1 C-0.67 0.67 -0.34 0.34 0 0 Z " fill="#B6CDEB" transform="translate(137,47)"/>
<path d="M0 0 C2.31 0.33 4.62 0.66 7 1 C6.67 1.99 6.34 2.98 6 4 C3.69 3.67 1.38 3.34 -1 3 C-0.67 2.01 -0.34 1.02 0 0 Z " fill="#6FBDFE" transform="translate(99,175)"/>
<path d="M0 0 C0 0.66 0 1.32 0 2 C-2.64 2.66 -5.28 3.32 -8 4 C-8.33 3.01 -8.66 2.02 -9 1 C-5.8035914 -0.06546953 -3.34252724 -0.07427838 0 0 Z " fill="#014985" transform="translate(166,179)"/>
<path d="M0 0 C-0.33 0.99 -0.66 1.98 -1 3 C-3.31 3 -5.62 3 -8 3 C-8 2.34 -8 1.68 -8 1 C-4.93251126 -0.86240388 -3.40254489 -1.2151946 0 0 Z " fill="#85AEDF" transform="translate(140,102)"/>
<path d="M0 0 C2.8125 -0.3125 2.8125 -0.3125 6 0 C7.875 2.5 7.875 2.5 9 5 C5.54074837 3.7508258 2.85306797 2.32472205 0 0 Z " fill="#4385B5" transform="translate(97,197)"/>
<path d="M0 0 C0.66 0.33 1.32 0.66 2 1 C-0.36292656 3.52588702 -1.66462511 4.88820837 -5 6 C-5 5.34 -5 4.68 -5 4 C-5.66 3.67 -6.32 3.34 -7 3 C-4.69631264 1.93347808 -2.35981813 0.93578995 0 0 Z " fill="#CBD9EC" transform="translate(111,101)"/>
<path d="M0 0 C0.33 0 0.66 0 1 0 C1 1.98 1 3.96 1 6 C-2.63 5.67 -6.26 5.34 -10 5 C-10 4.67 -10 4.34 -10 4 C-6.97265625 3.75585938 -6.97265625 3.75585938 -3.9453125 3.51171875 C-1.60480784 3.12606964 -1.60480784 3.12606964 0 0 Z " fill="#84A0CA" transform="translate(134,47)"/>
<path d="M0 0 C0.66 0.66 1.32 1.32 2 2 C1.75 5.5625 1.75 5.5625 1 9 C0.01 9.495 0.01 9.495 -1 10 C-0.67 6.7 -0.34 3.4 0 0 Z " fill="#676D77" transform="translate(73,138)"/>
<path d="M0 0 C0.99 0 1.98 0 3 0 C3 0.66 3 1.32 3 2 C3.99 2.33 4.98 2.66 6 3 C5.67 3.99 5.34 4.98 5 6 C2.5 4.6875 2.5 4.6875 0 3 C0 2.01 0 1.02 0 0 Z " fill="#434F5D" transform="translate(106,58)"/>
<path d="M0 0 C0.66 0 1.32 0 2 0 C1.21302675 3.41021743 0.12880057 6.68885166 -1 10 C-1.33 10 -1.66 10 -2 10 C-2.17942163 6.05272412 -2.09350689 3.4019487 0 0 Z " fill="#305491" transform="translate(174,158)"/>
<path d="M0 0 C0.66 0 1.32 0 2 0 C2.33 1.32 2.66 2.64 3 4 C2.34 4 1.68 4 1 4 C1 4.66 1 5.32 1 6 C0.01 6 -0.98 6 -2 6 C-1.34 4.02 -0.68 2.04 0 0 Z " fill="#93B7DC" transform="translate(114,98)"/>
<path d="M0 0 C0.66 0.33 1.32 0.66 2 1 C1.67 2.32 1.34 3.64 1 5 C-0.32 5.33 -1.64 5.66 -3 6 C-2.67 4.68 -2.34 3.36 -2 2 C-1.34 2 -0.68 2 0 2 C0 1.34 0 0.68 0 0 Z " fill="#044A80" transform="translate(159,192)"/>
<path d="M0 0 C0.99 0 1.98 0 3 0 C1.75023244 3.65316671 1.32901247 4.78065836 -2 7 C-1.34 4.69 -0.68 2.38 0 0 Z " fill="#051929" transform="translate(173,182)"/>
<path d="M0 0 C-3.465 2.97 -3.465 2.97 -7 6 C-6.75 3.625 -6.75 3.625 -6 1 C-2.69333333 -1.34666667 -2.69333333 -1.34666667 0 0 Z " fill="#909397" transform="translate(93,112)"/>
<path d="M0 0 C3.71599191 -0.20086443 4.77208445 -0.1519437 8 2 C8 2.66 8 3.32 8 4 C5.64828869 3.40138258 3.3140622 2.73075648 1 2 C0.67 1.34 0.34 0.68 0 0 Z " fill="#3F5977" transform="translate(134,43)"/>
<path d="M0 0 C1.32 0.33 2.64 0.66 4 1 C4.33 2.32 4.66 3.64 5 5 C4.01 5 3.02 5 2 5 C1.34 3.35 0.68 1.7 0 0 Z " fill="#3A4957" transform="translate(80,182)"/>
<path d="M0 0 C0.66 0.33 1.32 0.66 2 1 C1.67 1.99 1.34 2.98 1 4 C-0.9375 4.625 -0.9375 4.625 -3 5 C-3.99 5.495 -3.99 5.495 -5 6 C-3.63016497 2.83884224 -3.0109362 2.0072908 0 0 Z " fill="#A5A8AC" transform="translate(93,108)"/>
<path d="M0 0 C0.33 1.32 0.66 2.64 1 4 C-1.97 3.505 -1.97 3.505 -5 3 C-3 1 -3 1 0 0 Z " fill="#8F9CB4" transform="translate(123,54)"/>
<path d="M0 0 C-1.6875 1.5625 -1.6875 1.5625 -4 3 C-6.75 2.6875 -6.75 2.6875 -9 2 C-5.5647952 -0.29013653 -4.014669 -0.17842973 0 0 Z " fill="#48659C" transform="translate(158,159)"/>
<path d="M0 0 C0.66 0.99 1.32 1.98 2 3 C1.125 5.6875 1.125 5.6875 0 8 C-0.98120464 4.94736336 -0.98120464 3.05263664 0 0 Z " fill="#BDC9DA" transform="translate(75,140)"/>
<path d="M0 0 C0.99 0.33 1.98 0.66 3 1 C2.67 2.32 2.34 3.64 2 5 C1.01 5 0.02 5 -1 5 C-0.67 3.35 -0.34 1.7 0 0 Z " fill="#858B92" transform="translate(78,125)"/>
<path d="M0 0 C0.99 0.33 1.98 0.66 3 1 C1.02 3.97 1.02 3.97 -1 7 C-2 4 -2 4 -1.0625 1.8125 C-0.5365625 0.9153125 -0.5365625 0.9153125 0 0 Z " fill="#7294BF" transform="translate(94,131)"/>
<path d="M0 0 C2.475 0.99 2.475 0.99 5 2 C5 3.32 5 4.64 5 6 C4.731875 5.360625 4.46375 4.72125 4.1875 4.0625 C3.11332248 1.66868314 3.11332248 1.66868314 0 1 C0 0.67 0 0.34 0 0 Z " fill="#6288C7" transform="translate(156,108)"/>
<path d="M0 0 C0.598125 0.20625 1.19625 0.4125 1.8125 0.625 C-2.9375 3.625 -2.9375 3.625 -5.1875 3.625 C-5.1875 2.965 -5.1875 2.305 -5.1875 1.625 C-2.1875 -0.375 -2.1875 -0.375 0 0 Z " fill="#7EA6D3" transform="translate(112.1875,104.375)"/>
<path d="M0 0 C1.32 0 2.64 0 4 0 C3.67 1.32 3.34 2.64 3 4 C1.68 3.34 0.36 2.68 -1 2 C-0.67 1.34 -0.34 0.68 0 0 Z " fill="#7F9CB6" transform="translate(81,180)"/>
<path d="M0 0 C1.65 1.65 3.3 3.3 5 5 C3.35 4.67 1.7 4.34 0 4 C0 2.68 0 1.36 0 0 Z " fill="#6F9AC9" transform="translate(86,164)"/>
<path d="M0 0 C0.66 0.99 1.32 1.98 2 3 C1.67 3.66 1.34 4.32 1 5 C-0.32 4.67 -1.64 4.34 -3 4 C-2.01 2.68 -1.02 1.36 0 0 Z " fill="#6679A2" transform="translate(99,160)"/>
<path d="M0 0 C0.66 0.33 1.32 0.66 2 1 C1.67 2.32 1.34 3.64 1 5 C0.01 5 -0.98 5 -2 5 C-1.34 3.35 -0.68 1.7 0 0 Z " fill="#A1A4A8" transform="translate(85,115)"/>
<path d="M0 0 C1.32 0 2.64 0 4 0 C4 0.66 4 1.32 4 2 C2.02 2.99 2.02 2.99 0 4 C0 2.68 0 1.36 0 0 Z " fill="#263D55" transform="translate(145,59)"/>
<path d="M0 0 C0.99 0.66 1.98 1.32 3 2 C2.67 2.66 2.34 3.32 2 4 C0.68 3.34 -0.64 2.68 -2 2 C-1.34 1.34 -0.68 0.68 0 0 Z " fill="#659EC7" transform="translate(92,190)"/>
<path d="M0 0 C3 3.75 3 3.75 3 6 C2.01 5.67 1.02 5.34 0 5 C0 3.35 0 1.7 0 0 Z " fill="#49659F" transform="translate(174,125)"/>
<path d="M0 0 C0.66 0 1.32 0 2 0 C2.33 0.99 2.66 1.98 3 3 C2.01 3.495 2.01 3.495 1 4 C0.34 3.67 -0.32 3.34 -1 3 C-0.67 2.01 -0.34 1.02 0 0 Z " fill="#849CBA" transform="translate(110,57)"/>
<path d="M0 0 C0.66 0.66 1.32 1.32 2 2 C1.67 2.99 1.34 3.98 1 5 C0.34 4.67 -0.32 4.34 -1 4 C-0.67 2.68 -0.34 1.36 0 0 Z " fill="#3F598C" transform="translate(177,131)"/>
<path d="M0 0 C1.98 0.99 1.98 0.99 4 2 C3.01 2.33 2.02 2.66 1 3 C0.67 2.01 0.34 1.02 0 0 Z " fill="#3787C3" transform="translate(105,199)"/>
</svg>
