<?xml version="1.0" encoding="UTF-8"?>
<svg version="1.1" xmlns="http://www.w3.org/2000/svg" width="154" height="160">
<path d="M0 0 C2.61108398 1.15478516 2.61108398 1.15478516 5.24609375 2.7890625 C6.23657715 3.39387451 7.22706055 3.99868652 8.24755859 4.62182617 C9.30023926 5.28287354 10.35291992 5.9439209 11.4375 6.625 C13.11717246 7.65744457 14.79685008 8.68988094 16.47692871 9.72166443 C18.19980181 10.78251327 19.91886495 11.84931075 21.63720703 12.91748047 C25.74375903 15.4605971 29.87647537 17.9586802 34.01123047 20.45556641 C42.32277783 25.48217485 50.5888359 30.58090713 58.8125 35.75 C60.01398682 36.50253052 60.01398682 36.50253052 61.23974609 37.27026367 C61.9714502 37.73279541 62.7031543 38.19532715 63.45703125 38.671875 C64.09616455 39.0750293 64.73529785 39.47818359 65.39379883 39.89355469 C67 41 67 41 69 43 C69.25168228 45.03650665 69.25168228 45.03650665 69.25396729 47.59289551 C69.26242676 49.0441256 69.26242676 49.0441256 69.27105713 50.52467346 C69.26498444 52.1221769 69.26498444 52.1221769 69.25878906 53.75195312 C69.26404602 55.43006325 69.26404602 55.43006325 69.26940918 57.14207458 C69.27824113 60.85519542 69.2723721 64.56812709 69.265625 68.28125 C69.26697123 70.85192909 69.2689114 73.42260792 69.27142334 75.99328613 C69.27437659 81.38698986 69.27026009 86.78062195 69.26074219 92.17431641 C69.24985732 98.41481998 69.25338279 104.65519289 69.264395 110.8956933 C69.27455526 116.89287788 69.27349169 122.88999839 69.26763153 128.88719177 C69.26629352 131.44217446 69.26794799 133.99716046 69.27259064 136.55213928 C69.27764687 140.11753281 69.26995819 143.68267235 69.25878906 147.24804688 C69.26283752 148.31304916 69.26688599 149.37805145 69.27105713 150.47532654 C69.26541748 151.44281326 69.25977783 152.41029999 69.25396729 153.40710449 C69.25283621 154.67251698 69.25283621 154.67251698 69.25168228 155.96349335 C69 158 69 158 67 160 C64.6015625 160.25878906 64.6015625 160.25878906 61.625 160.265625 C60.55765625 160.26820313 59.4903125 160.27078125 58.390625 160.2734375 C57.27171875 160.26570312 56.1528125 160.25796875 55 160.25 C53.88109375 160.25773438 52.7621875 160.26546875 51.609375 160.2734375 C50.54203125 160.27085937 49.4746875 160.26828125 48.375 160.265625 C47.39273438 160.26336914 46.41046875 160.26111328 45.3984375 160.25878906 C43 160 43 160 41 158 C40.75949097 155.177948 40.75949097 155.177948 40.77294922 151.53076172 C40.77270815 150.85649202 40.77246708 150.18222233 40.7722187 149.48752022 C40.77371341 147.30144249 40.78895291 145.11570435 40.8046875 142.9296875 C40.80762746 141.58146326 40.80966819 140.23323674 40.81079102 138.88500977 C40.82128383 133.8816384 40.84920618 128.87831588 40.875 123.875 C40.936875 107.106875 40.936875 107.106875 41 90 C11.96 90 -17.08 90 -47 90 C-46.92079854 112.28886651 -46.92079854 112.28886651 -46.81982422 134.57763672 C-46.81079102 138.88500977 -46.81079102 138.88500977 -46.80911255 140.90042114 C-46.80603805 142.31034608 -46.79899705 143.7202657 -46.78884888 145.13015747 C-46.77425691 147.2637854 -46.77218637 149.39709153 -46.77294922 151.53076172 C-46.768508 152.73433319 -46.76406677 153.93790466 -46.75949097 155.177948 C-47 158 -47 158 -49 160 C-51.3984375 160.25878906 -51.3984375 160.25878906 -54.375 160.265625 C-55.44234375 160.26820313 -56.5096875 160.27078125 -57.609375 160.2734375 C-58.72828125 160.26570312 -59.8471875 160.25796875 -61 160.25 C-62.11890625 160.25773438 -63.2378125 160.26546875 -64.390625 160.2734375 C-65.45796875 160.27085937 -66.5253125 160.26828125 -67.625 160.265625 C-68.60726562 160.26336914 -69.58953125 160.26111328 -70.6015625 160.25878906 C-73 160 -73 160 -75 158 C-75.26844215 155.9746666 -75.26844215 155.9746666 -75.29434204 153.434021 C-75.30865265 152.47231491 -75.32296326 151.51060883 -75.33770752 150.51976013 C-75.34308533 149.46104202 -75.34846313 148.40232391 -75.35400391 147.31152344 C-75.3671463 146.19920853 -75.3802887 145.08689362 -75.39382935 143.94087219 C-75.4333633 140.2470373 -75.45663514 136.55336527 -75.4765625 132.859375 C-75.48471355 131.59995338 -75.49286461 130.34053177 -75.50126266 129.04294586 C-75.53870473 123.06498879 -75.56782909 117.08713078 -75.5844866 111.10908771 C-75.60402268 104.21204649 -75.65663085 97.31629064 -75.73748839 90.41970229 C-75.80514183 84.44383693 -75.82878079 78.46859429 -75.83689499 72.4923172 C-75.84664891 69.95171646 -75.86994035 67.41113053 -75.90697098 64.87078094 C-75.95558351 61.31482792 -75.95385955 57.76223704 -75.93994141 54.20605469 C-75.96556152 53.1554335 -75.99118164 52.10481232 -76.01757812 51.02235413 C-75.91775572 44.02866895 -75.91775572 44.02866895 -73.24931049 41.03773499 C-71.22902908 39.50130998 -69.22064691 38.22355841 -67 37 C-66.12400146 36.42443359 -65.24800293 35.84886719 -64.34545898 35.25585938 C-63.57016846 34.78986328 -62.79487793 34.32386719 -61.99609375 33.84375 C-61.10212891 33.30322998 -60.20816406 32.76270996 -59.28710938 32.20581055 C-58.34673828 31.64289307 -57.40636719 31.07997559 -56.4375 30.5 C-54.39444974 29.26706214 -52.35148344 28.03398514 -50.30859375 26.80078125 C-49.26687012 26.17381348 -48.22514648 25.5468457 -47.15185547 24.90087891 C-43.07012983 22.43919681 -39.00029329 19.95830977 -34.93164062 17.47509766 C-32.05239019 15.71944545 -29.16895609 13.97082251 -26.28515625 12.22265625 C-22.98234094 10.21743919 -19.69848396 8.18743415 -16.43359375 6.12109375 C-15.74974609 5.69417236 -15.06589844 5.26725098 -14.36132812 4.82739258 C-13.13051864 4.05813665 -11.90585097 3.27890836 -10.68945312 2.48706055 C-6.90891276 0.14459699 -4.40155393 -0.37410468 0 0 Z " fill="#85878D" transform="translate(81,0)"/>
<path d="M0 0 C0.65830811 -0.00191345 1.31661621 -0.0038269 1.99487305 -0.00579834 C3.3868854 -0.0071595 4.77891047 -0.00346783 6.17089844 0.00488281 C8.30432589 0.015584 10.43691131 0.00498594 12.5703125 -0.0078125 C13.92187686 -0.00649089 15.2734407 -0.00392847 16.625 0 C18.47544922 0.00338379 18.47544922 0.00338379 20.36328125 0.00683594 C23.3125 0.265625 23.3125 0.265625 25.3125 2.265625 C25.55541992 5.23071289 25.55541992 5.23071289 25.54296875 8.98828125 C25.54251053 9.64896103 25.54205231 10.30964081 25.5415802 10.99034119 C25.53855921 12.38656409 25.53067742 13.78278367 25.51831055 15.17895508 C25.50004196 17.32319998 25.49780094 19.46701349 25.49804688 21.61132812 C25.45993212 32.11819288 25.45993212 32.11819288 24.3125 33.265625 C25.51648438 33.31460938 26.72046875 33.36359375 27.9609375 33.4140625 C29.53648198 33.48908843 31.11200166 33.56463633 32.6875 33.640625 C33.4815625 33.6715625 34.275625 33.7025 35.09375 33.734375 C41.0859375 34.0390625 41.0859375 34.0390625 43.3125 36.265625 C43.57128906 39.21484375 43.57128906 39.21484375 43.578125 42.953125 C43.58003845 43.61143311 43.5819519 44.26974121 43.58392334 44.94799805 C43.5852845 46.3400104 43.58159283 47.73203547 43.57324219 49.12402344 C43.562541 51.25745089 43.57313906 53.39003631 43.5859375 55.5234375 C43.58461589 56.87500186 43.58205347 58.2265657 43.578125 59.578125 C43.57586914 60.81175781 43.57361328 62.04539063 43.57128906 63.31640625 C43.3125 66.265625 43.3125 66.265625 41.3125 68.265625 C38.36328125 68.52441406 38.36328125 68.52441406 34.625 68.53125 C33.96669189 68.53316345 33.30838379 68.5350769 32.63012695 68.53704834 C31.2381146 68.5384095 29.84608953 68.53471783 28.45410156 68.52636719 C26.32067411 68.515666 24.18808869 68.52626406 22.0546875 68.5390625 C20.70312314 68.53774089 19.3515593 68.53517847 18 68.53125 C16.76636719 68.52899414 15.53273437 68.52673828 14.26171875 68.52441406 C11.3125 68.265625 11.3125 68.265625 9.3125 66.265625 C9.06958008 63.30053711 9.06958008 63.30053711 9.08203125 59.54296875 C9.08248947 58.88228897 9.08294769 58.22160919 9.0834198 57.54090881 C9.08644079 56.14468591 9.09432258 54.74846633 9.10668945 53.35229492 C9.12495804 51.20805002 9.12719906 49.06423651 9.12695312 46.91992188 C9.16506788 36.41305712 9.16506788 36.41305712 10.3125 35.265625 C8.6625 35.265625 7.0125 35.265625 5.3125 35.265625 C5.6425 35.595625 5.9725 35.925625 6.3125 36.265625 C6.53059756 40.52310926 6.49829161 44.78608224 6.49780273 49.04858398 C6.49998743 51.190795 6.51813512 53.33248971 6.53710938 55.47460938 C6.54004359 56.8307274 6.5420282 58.18684788 6.54296875 59.54296875 C6.54707764 60.78296631 6.55118652 62.02296387 6.55541992 63.30053711 C6.3125 66.265625 6.3125 66.265625 4.3125 68.265625 C1.36328125 68.52441406 1.36328125 68.52441406 -2.375 68.53125 C-3.03330811 68.53316345 -3.69161621 68.5350769 -4.36987305 68.53704834 C-5.7618854 68.5384095 -7.15391047 68.53471783 -8.54589844 68.52636719 C-10.67932589 68.515666 -12.81191131 68.52626406 -14.9453125 68.5390625 C-16.29687686 68.53774089 -17.6484407 68.53517847 -19 68.53125 C-20.23363281 68.52899414 -21.46726562 68.52673828 -22.73828125 68.52441406 C-25.6875 68.265625 -25.6875 68.265625 -27.6875 66.265625 C-27.94628906 63.31640625 -27.94628906 63.31640625 -27.953125 59.578125 C-27.95503845 58.91981689 -27.9569519 58.26150879 -27.95892334 57.58325195 C-27.9602845 56.1912396 -27.95659283 54.79921453 -27.94824219 53.40722656 C-27.937541 51.27379911 -27.94813906 49.14121369 -27.9609375 47.0078125 C-27.95961589 45.65624814 -27.95705347 44.3046843 -27.953125 42.953125 C-27.95086914 41.71949219 -27.94861328 40.48585937 -27.94628906 39.21484375 C-27.6875 36.265625 -27.6875 36.265625 -25.6875 34.265625 C-23.80810547 33.94677734 -23.80810547 33.94677734 -21.5546875 33.8515625 C-20.34619141 33.79355469 -20.34619141 33.79355469 -19.11328125 33.734375 C-18.27152344 33.7034375 -17.42976563 33.6725 -16.5625 33.640625 C-15.28826172 33.58261719 -15.28826172 33.58261719 -13.98828125 33.5234375 C-11.88838316 33.42906006 -9.78797109 33.34624914 -7.6875 33.265625 C-8.1825 32.770625 -8.1825 32.770625 -8.6875 32.265625 C-8.90559756 28.00814074 -8.87329161 23.74516776 -8.87280273 19.48266602 C-8.87498743 17.340455 -8.89313512 15.19876029 -8.91210938 13.05664062 C-8.91504359 11.7005226 -8.9170282 10.34440212 -8.91796875 8.98828125 C-8.92207764 7.74828369 -8.92618652 6.50828613 -8.93041992 5.23071289 C-8.44776165 -0.6606285 -5.053149 0.00924035 0 0 Z " fill="#000000" transform="translate(69.6875,91.734375)"/>
<path d="M0 0 C2.61108398 1.15478516 2.61108398 1.15478516 5.24609375 2.7890625 C6.23657715 3.39387451 7.22706055 3.99868652 8.24755859 4.62182617 C9.30023926 5.28287354 10.35291992 5.9439209 11.4375 6.625 C13.11717246 7.65744457 14.79685008 8.68988094 16.47692871 9.72166443 C18.19980181 10.78251327 19.91886495 11.84931075 21.63720703 12.91748047 C25.74375903 15.4605971 29.87647537 17.9586802 34.01123047 20.45556641 C42.32277783 25.48217485 50.5888359 30.58090713 58.8125 35.75 C60.01398682 36.50253052 60.01398682 36.50253052 61.23974609 37.27026367 C61.9714502 37.73279541 62.7031543 38.19532715 63.45703125 38.671875 C64.09616455 39.0750293 64.73529785 39.47818359 65.39379883 39.89355469 C67 41 67 41 69 43 C69.25168228 45.03650665 69.25168228 45.03650665 69.25396729 47.59289551 C69.26242676 49.0441256 69.26242676 49.0441256 69.27105713 50.52467346 C69.26498444 52.1221769 69.26498444 52.1221769 69.25878906 53.75195312 C69.26404602 55.43006325 69.26404602 55.43006325 69.26940918 57.14207458 C69.27824113 60.85519542 69.2723721 64.56812709 69.265625 68.28125 C69.26697123 70.85192909 69.2689114 73.42260792 69.27142334 75.99328613 C69.27437659 81.38698986 69.27026009 86.78062195 69.26074219 92.17431641 C69.24985732 98.41481998 69.25338279 104.65519289 69.264395 110.8956933 C69.27455526 116.89287788 69.27349169 122.88999839 69.26763153 128.88719177 C69.26629352 131.44217446 69.26794799 133.99716046 69.27259064 136.55213928 C69.27764687 140.11753281 69.26995819 143.68267235 69.25878906 147.24804688 C69.26283752 148.31304916 69.26688599 149.37805145 69.27105713 150.47532654 C69.26541748 151.44281326 69.25977783 152.41029999 69.25396729 153.40710449 C69.25283621 154.67251698 69.25283621 154.67251698 69.25168228 155.96349335 C69 158 69 158 67 160 C64.6015625 160.25878906 64.6015625 160.25878906 61.625 160.265625 C60.55765625 160.26820313 59.4903125 160.27078125 58.390625 160.2734375 C57.27171875 160.26570312 56.1528125 160.25796875 55 160.25 C53.88109375 160.25773438 52.7621875 160.26546875 51.609375 160.2734375 C50.54203125 160.27085937 49.4746875 160.26828125 48.375 160.265625 C47.39273438 160.26336914 46.41046875 160.26111328 45.3984375 160.25878906 C43 160 43 160 41 158 C40.75949097 155.177948 40.75949097 155.177948 40.77294922 151.53076172 C40.77270815 150.85649202 40.77246708 150.18222233 40.7722187 149.48752022 C40.77371341 147.30144249 40.78895291 145.11570435 40.8046875 142.9296875 C40.80762746 141.58146326 40.80966819 140.23323674 40.81079102 138.88500977 C40.82128383 133.8816384 40.84920618 128.87831588 40.875 123.875 C40.936875 107.106875 40.936875 107.106875 41 90 C11.96 90 -17.08 90 -47 90 C-46.92079854 112.28886651 -46.92079854 112.28886651 -46.81982422 134.57763672 C-46.81079102 138.88500977 -46.81079102 138.88500977 -46.80911255 140.90042114 C-46.80603805 142.31034608 -46.79899705 143.7202657 -46.78884888 145.13015747 C-46.77425691 147.2637854 -46.77218637 149.39709153 -46.77294922 151.53076172 C-46.768508 152.73433319 -46.76406677 153.93790466 -46.75949097 155.177948 C-47 158 -47 158 -49 160 C-51.3984375 160.25878906 -51.3984375 160.25878906 -54.375 160.265625 C-55.44234375 160.26820313 -56.5096875 160.27078125 -57.609375 160.2734375 C-58.72828125 160.26570312 -59.8471875 160.25796875 -61 160.25 C-62.11890625 160.25773438 -63.2378125 160.26546875 -64.390625 160.2734375 C-65.45796875 160.27085937 -66.5253125 160.26828125 -67.625 160.265625 C-68.60726562 160.26336914 -69.58953125 160.26111328 -70.6015625 160.25878906 C-73 160 -73 160 -75 158 C-75.26844215 155.9746666 -75.26844215 155.9746666 -75.29434204 153.434021 C-75.30865265 152.47231491 -75.32296326 151.51060883 -75.33770752 150.51976013 C-75.34308533 149.46104202 -75.34846313 148.40232391 -75.35400391 147.31152344 C-75.3671463 146.19920853 -75.3802887 145.08689362 -75.39382935 143.94087219 C-75.4333633 140.2470373 -75.45663514 136.55336527 -75.4765625 132.859375 C-75.48471355 131.59995338 -75.49286461 130.34053177 -75.50126266 129.04294586 C-75.53870473 123.06498879 -75.56782909 117.08713078 -75.5844866 111.10908771 C-75.60402268 104.21204649 -75.65663085 97.31629064 -75.73748839 90.41970229 C-75.80514183 84.44383693 -75.82878079 78.46859429 -75.83689499 72.4923172 C-75.84664891 69.95171646 -75.86994035 67.41113053 -75.90697098 64.87078094 C-75.95558351 61.31482792 -75.95385955 57.76223704 -75.93994141 54.20605469 C-75.96556152 53.1554335 -75.99118164 52.10481232 -76.01757812 51.02235413 C-75.91775572 44.02866895 -75.91775572 44.02866895 -73.24931049 41.03773499 C-71.22902908 39.50130998 -69.22064691 38.22355841 -67 37 C-66.12400146 36.42443359 -65.24800293 35.84886719 -64.34545898 35.25585938 C-63.57016846 34.78986328 -62.79487793 34.32386719 -61.99609375 33.84375 C-61.10212891 33.30322998 -60.20816406 32.76270996 -59.28710938 32.20581055 C-58.34673828 31.64289307 -57.40636719 31.07997559 -56.4375 30.5 C-54.39444974 29.26706214 -52.35148344 28.03398514 -50.30859375 26.80078125 C-49.26687012 26.17381348 -48.22514648 25.5468457 -47.15185547 24.90087891 C-43.07012983 22.43919681 -39.00029329 19.95830977 -34.93164062 17.47509766 C-32.05239019 15.71944545 -29.16895609 13.97082251 -26.28515625 12.22265625 C-22.98234094 10.21743919 -19.69848396 8.18743415 -16.43359375 6.12109375 C-15.74974609 5.69417236 -15.06589844 5.26725098 -14.36132812 4.82739258 C-13.13051864 4.05813665 -11.90585097 3.27890836 -10.68945312 2.48706055 C-6.90891276 0.14459699 -4.40155393 -0.37410468 0 0 Z M-11.5 8.3125 C-12.25829102 8.76326904 -13.01658203 9.21403809 -13.79785156 9.6784668 C-22.24285219 14.7129864 -30.63063407 19.84098544 -39 25 C-40.31750244 25.81186768 -40.31750244 25.81186768 -41.66162109 26.64013672 C-44.42122298 28.34185048 -47.17966271 30.04542813 -49.9375 31.75 C-50.77700195 32.26860596 -51.61650391 32.78721191 -52.48144531 33.3215332 C-54.09557299 34.32108002 -55.69574321 35.34365579 -57.27841187 36.39230347 C-60 38 -60 38 -62.86019897 38.96028137 C-66.62163352 40.4919012 -68.4705512 41.78025865 -71 45 C-73.15157168 52.99561955 -72.27254263 61.77394347 -72.07421875 69.96484375 C-72.05369356 72.44345141 -72.03803964 74.9221038 -72.02705383 77.40077209 C-71.98512252 83.91378754 -71.87713217 90.42408942 -71.75531006 96.93603516 C-71.6366594 103.58509111 -71.59251128 110.23493888 -71.53710938 116.88476562 C-71.41925915 129.92436712 -71.23160727 142.96195763 -71 156 C-64.4 156 -57.8 156 -51 156 C-51 132.9 -51 109.8 -51 86 C-19.32 86 12.36 86 45 86 C45 109.1 45 132.2 45 156 C51.6 156 58.2 156 65 156 C65.37126315 141.70100173 65.65527392 127.40315511 65.82899475 113.10031319 C65.9123969 106.45756248 66.02540111 99.81956294 66.20703125 93.17871094 C66.3813225 86.76580459 66.47662933 80.35606755 66.51803589 73.94097519 C66.54752622 71.49815834 66.60512478 69.05550902 66.69168091 66.614048 C67.64685776 54.20070278 67.64685776 54.20070278 63.4464283 43.01506042 C59.69512634 39.73057832 55.54340333 37.66135751 50.94192505 35.81694889 C48.17743543 34.65395512 45.72673309 33.0802524 43.21484375 31.453125 C41.4563335 30.38442162 39.69721632 29.31671631 37.9375 28.25 C35.9804471 27.06123356 34.02341657 25.8724303 32.06640625 24.68359375 C31.07656738 24.08272949 30.08672852 23.48186523 29.06689453 22.86279297 C22.85733396 19.09118437 16.65382905 15.3096174 10.44897461 11.53027344 C9.09364624 10.7051123 9.09364624 10.7051123 7.7109375 9.86328125 C6.91993652 9.38157471 6.12893555 8.89986816 5.31396484 8.40356445 C4.16855225 7.70880005 4.16855225 7.70880005 3 7 C2.11908691 6.44594482 1.23817383 5.89188965 0.33056641 5.32104492 C-4.35121486 2.66725083 -7.35045147 5.82397017 -11.5 8.3125 Z " fill="#000000" transform="translate(81,0)"/>
<path d="M0 0 C0.33 0 0.66 0 1 0 C2.095536 16.7529316 2.11732693 33.46675223 2.0625 50.25 C2.05688984 52.95312354 2.05284136 55.65624868 2.04882812 58.359375 C2.03793866 64.90627303 2.02075028 71.45312611 2 78 C7.61 78 13.22 78 19 78 C18.83757813 75.57785156 18.67515625 73.15570313 18.5078125 70.66015625 C17.83858793 59.41435428 17.84878956 48.16953207 17.86962891 36.9074707 C17.87508245 33.38423541 17.86960182 29.86112253 17.86328125 26.33789062 C17.86394051 24.09895805 17.86521852 21.86002555 17.8671875 19.62109375 C17.86516327 18.56715927 17.86313904 17.51322479 17.86105347 16.42735291 C17.86420563 15.46446854 17.86735779 14.50158417 17.87060547 13.50952148 C17.87140106 12.66002426 17.87219666 11.81052704 17.87301636 10.93528748 C18 9 18 9 19 8 C22.03865761 7.89935801 25.0546273 7.8638541 28.09375 7.87060547 C29.04813965 7.86885315 30.0025293 7.86710083 30.98583984 7.86529541 C34.15724477 7.86087513 37.32859445 7.8638155 40.5 7.8671875 C42.69335948 7.86651451 44.8867189 7.86554453 47.08007812 7.86428833 C51.68360095 7.86281112 56.28710442 7.86496666 60.890625 7.86962891 C66.80604595 7.8753262 72.72142154 7.87204732 78.63684082 7.86605644 C83.16797226 7.86245146 87.69909285 7.86358913 92.23022461 7.86618423 C94.41202805 7.86685368 96.59383246 7.86602448 98.77563477 7.86370468 C101.8191999 7.86117918 104.86269046 7.8650173 107.90625 7.87060547 C108.81745605 7.86858124 109.72866211 7.86655701 110.66748047 7.86447144 C116.88573771 7.88573771 116.88573771 7.88573771 118 9 C118.09425595 11.14743549 118.11742648 13.29801026 118.11352539 15.44750977 C118.11367142 16.12065216 118.11381744 16.79379456 118.1139679 17.48733521 C118.11326878 19.72205784 118.10547652 21.9566981 118.09765625 24.19140625 C118.09579206 25.73697362 118.09436816 27.28254157 118.09336853 28.82810974 C118.0895434 32.90357077 118.07971317 36.97899637 118.06866455 41.05444336 C118.05845032 45.21011882 118.05387089 49.36579999 118.04882812 53.52148438 C118.03809089 61.68100768 118.02049414 69.84049536 118 78 C125.92 77.505 125.92 77.505 134 77 C133.98839844 75.3809375 133.97679687 73.761875 133.96484375 72.09375 C133.90538651 60.01556889 133.99508575 48.0410261 135 36 C135.33 36 135.66 36 136 36 C136 50.52 136 65.04 136 80 C129.4 80 122.8 80 116 80 C116 56.9 116 33.8 116 10 C84.32 10 52.64 10 20 10 C20 33.1 20 56.2 20 80 C13.4 80 6.8 80 0 80 C0 53.6 0 27.2 0 0 Z " fill="#63656B" transform="translate(10,76)"/>
<path d="M0 0 C8.58 0 17.16 0 26 0 C26 8.58 26 17.16 26 26 C17.42 26 8.84 26 0 26 C0 17.42 0 8.84 0 0 Z " fill="#6C7078" transform="translate(83,130)"/>
<path d="M0 0 C8.58 0 17.16 0 26 0 C26 8.58 26 17.16 26 26 C17.42 26 8.84 26 0 26 C0 17.42 0 8.84 0 0 Z " fill="#6C6F78" transform="translate(46,130)"/>
<path d="M0 0 C8.58 0 17.16 0 26 0 C26 8.58 26 17.16 26 26 C17.42 26 8.84 26 0 26 C0 17.42 0 8.84 0 0 Z " fill="#7A7D84" transform="translate(65,96)"/>
<path d="M0 0 C0.92039062 0.53753906 1.84078125 1.07507813 2.7890625 1.62890625 C3.81257813 2.21800781 4.83609375 2.80710937 5.890625 3.4140625 C7.06865204 4.16765958 8.24285991 4.92724609 9.4140625 5.69140625 C16.47124431 10.20042213 23.60637224 14.57072698 30.7744751 18.90014648 C42.53487927 26.00471134 54.21161809 33.22903722 65.7890625 40.62890625 C63.95703125 41.23046875 63.95703125 41.23046875 61.7890625 41.62890625 C59.1015625 40.00390625 59.1015625 40.00390625 57.55859375 38.87109375 C55.54239937 37.455752 53.455189 36.30116294 51.2890625 35.12890625 C48.73310098 33.73204356 46.33384503 32.32212926 43.9140625 30.69140625 C39.37503642 27.69564904 34.58406596 25.18851664 29.7890625 22.62890625 C29.7890625 21.96890625 29.7890625 21.30890625 29.7890625 20.62890625 C28.92152344 20.36722656 28.05398437 20.10554688 27.16015625 19.8359375 C20.16007474 17.3295352 13.71820725 13.1265321 7.7265625 8.75390625 C4.93528475 6.51107667 4.93528475 6.51107667 1.7890625 5.62890625 C1.7890625 4.96890625 1.7890625 4.30890625 1.7890625 3.62890625 C-5.06512211 3.75583559 -8.64104688 5.94250808 -14.01171875 10.1328125 C-16.2109375 11.62890625 -16.2109375 11.62890625 -19.2109375 11.62890625 C-19.2109375 12.28890625 -19.2109375 12.94890625 -19.2109375 13.62890625 C-20.99975486 14.63399426 -22.79208446 15.63283361 -24.5859375 16.62890625 C-25.58367188 17.18578125 -26.58140625 17.74265625 -27.609375 18.31640625 C-30.2109375 19.62890625 -30.2109375 19.62890625 -32.2109375 19.62890625 C-32.2109375 20.28890625 -32.2109375 20.94890625 -32.2109375 21.62890625 C-33.42330078 22.20898438 -33.42330078 22.20898438 -34.66015625 22.80078125 C-35.72878906 23.3215625 -36.79742187 23.84234375 -37.8984375 24.37890625 C-38.95417969 24.889375 -40.00992188 25.39984375 -41.09765625 25.92578125 C-44.12029592 27.57932064 -46.55264819 29.4531447 -49.2109375 31.62890625 C-51.37890625 32.89453125 -51.37890625 32.89453125 -53.3984375 33.87890625 C-54.07261719 34.2140625 -54.74679688 34.54921875 -55.44140625 34.89453125 C-57.2109375 35.62890625 -57.2109375 35.62890625 -59.2109375 35.62890625 C-59.5409375 36.61890625 -59.8709375 37.60890625 -60.2109375 38.62890625 C-65.31009382 41.80171463 -65.31009382 41.80171463 -68.41015625 41.20703125 C-69.30154297 40.92085937 -69.30154297 40.92085937 -70.2109375 40.62890625 C-59.77345342 34.07348369 -49.2926326 27.59390766 -38.76513672 21.18408203 C-35.94571148 19.46741803 -33.12715601 17.7493305 -30.30859375 16.03125 C-28.27609524 14.79288082 -26.24354377 13.55459855 -24.2109375 12.31640625 C-22.79639282 11.45450684 -22.79639282 11.45450684 -21.35327148 10.57519531 C-19.53207506 9.46657111 -17.70736127 8.36370112 -15.87890625 7.26708984 C-14.06497072 6.1532989 -12.27605636 4.99792913 -10.51171875 3.80712891 C-4.02507375 -0.46518492 -4.02507375 -0.46518492 0 0 Z " fill="#C9CACB" transform="translate(80.2109375,4.37109375)"/>
<path d="M0 0 C0.33 0 0.66 0 1 0 C1 14.52 1 29.04 1 44 C-5.6 44 -12.2 44 -19 44 C-19 33.44 -19 22.88 -19 12 C-18.67 12 -18.34 12 -18 12 C-16.90054108 22.01292948 -16.89944018 31.94401799 -17 42 C-9.08 41.505 -9.08 41.505 -1 41 C-1.01160156 39.3809375 -1.02320313 37.761875 -1.03515625 36.09375 C-1.09461349 24.01556889 -1.00491425 12.0410261 0 0 Z " fill="#5A5C63" transform="translate(145,112)"/>
<path d="M0 0 C3.4011952 1.57742852 6.36219789 3.42416688 9.44921875 5.55078125 C10.50882813 6.27523438 11.5684375 6.9996875 12.66015625 7.74609375 C13.45679687 8.30039063 14.2534375 8.8546875 15.07421875 9.42578125 C14.08421875 9.92078125 14.08421875 9.92078125 13.07421875 10.42578125 C10.47265625 9.4296875 10.47265625 9.4296875 7.44921875 7.98828125 C6.44632813 7.51519531 5.4434375 7.04210937 4.41015625 6.5546875 C3.63929687 6.18214844 2.8684375 5.80960938 2.07421875 5.42578125 C2.07421875 4.76578125 2.07421875 4.10578125 2.07421875 3.42578125 C-3.91906707 3.74685013 -7.38815036 4.95043786 -12.26171875 8.46484375 C-12.81085938 8.78195312 -13.36 9.0990625 -13.92578125 9.42578125 C-14.58578125 9.09578125 -15.24578125 8.76578125 -15.92578125 8.42578125 C-13.56315232 5.87845168 -11.03269775 3.99229126 -8.11328125 2.11328125 C-7.28183594 1.56027344 -6.45039062 1.00726563 -5.59375 0.4375 C-2.92578125 -0.57421875 -2.92578125 -0.57421875 0 0 Z " fill="#CDCED0" transform="translate(79.92578125,4.57421875)"/>
<path d="M0 0 C0.66 0.33 1.32 0.66 2 1 C1.67 1.99 1.34 2.98 1 4 C0.01 4 -0.98 4 -2 4 C-2 4.66 -2 5.32 -2 6 C-3.78881736 7.00508801 -5.58114696 8.00392736 -7.375 9 C-8.37273438 9.556875 -9.37046875 10.11375 -10.3984375 10.6875 C-13 12 -13 12 -15 12 C-15 12.66 -15 13.32 -15 14 C-17.375 15.6875 -17.375 15.6875 -20 17 C-22 16 -22 16 -23 14 C-22.09378906 13.49210937 -21.18757813 12.98421875 -20.25390625 12.4609375 C-13.32210358 8.55215512 -6.53102783 4.56135277 0 0 Z " fill="#C4C5C6" transform="translate(63,12)"/>
<path d="M0 0 C4.72284267 -0.73794417 7.55479825 1.23058746 11.42578125 3.61328125 C11.94527344 4.07089844 12.46476562 4.52851563 13 5 C13 5.99 13 6.98 13 8 C7.73691968 6.58795406 4.2437012 4.31008693 0 1 C0 0.67 0 0.34 0 0 Z " fill="#C3C5C7" transform="translate(91,14)"/>
<path d="M0 0 C0.66 0.99 1.32 1.98 2 3 C-3.078125 6.22265625 -3.078125 6.22265625 -5 7 C-6.32 6.67 -7.64 6.34 -9 6 C-6.03 4.02 -3.06 2.04 0 0 Z " fill="#C0C1C3" transform="translate(19,39)"/>
<path d="M0 0 C0.66 0.33 1.32 0.66 2 1 C-1.01887244 4.48331435 -3.56909529 5.79157144 -8 7 C-6.88424427 3.65273281 -6.48655378 3.37920252 -3.5625 1.75 C-2.386875 1.1725 -1.21125 0.595 0 0 Z " fill="#CED0D2" transform="translate(28,34)"/>
<path d="M0 0 C2.625 1.4375 2.625 1.4375 5 3 C3.1875 3.6875 3.1875 3.6875 1 4 C-0.75 2.5625 -0.75 2.5625 -2 1 C-1.34 0.67 -0.68 0.34 0 0 Z " fill="#BFC0C3" transform="translate(141,42)"/>
<path d="M0 0 C0.99 0.33 1.98 0.66 3 1 C1.68 2.32 0.36 3.64 -1 5 C-1.66 4.67 -2.32 4.34 -3 4 C-3 3.34 -3 2.68 -3 2 C-2.01 1.34 -1.02 0.68 0 0 Z " fill="#C4C5C6" transform="translate(32,31)"/>
<path d="M0 0 C1.65 0 3.3 0 5 0 C5.33 1.32 5.66 2.64 6 4 C1.125 2.25 1.125 2.25 0 0 Z " fill="#BABABE" transform="translate(91,14)"/>
<path d="M0 0 C1.98 0.66 3.96 1.32 6 2 C6 2.33 6 2.66 6 3 C4.35 3 2.7 3 1 3 C0.67 2.01 0.34 1.02 0 0 Z " fill="#CFCFD0" transform="translate(126,34)"/>
<path d="M0 0 C1.98 0.99 1.98 0.99 4 2 C4 2.66 4 3.32 4 4 C2.68 4 1.36 4 0 4 C0 2.68 0 1.36 0 0 Z " fill="#C1C2C4" transform="translate(82,6)"/>
<path d="M0 0 C0.99 0.66 1.98 1.32 3 2 C1.02 2.99 1.02 2.99 -1 4 C-1.33 3.01 -1.66 2.02 -2 1 C-1.34 0.67 -0.68 0.34 0 0 Z " fill="#B3B5B8" transform="translate(42,25)"/>
<path d="M0 0 C1.32 0.33 2.64 0.66 4 1 C4 1.99 4 2.98 4 4 C3.34 4 2.68 4 2 4 C2 3.34 2 2.68 2 2 C1.34 2 0.68 2 0 2 C0 1.34 0 0.68 0 0 Z " fill="#C5C6C8" transform="translate(108,23)"/>
</svg>
