<?xml version="1.0" encoding="UTF-8"?>
<svg version="1.1" xmlns="http://www.w3.org/2000/svg" width="44" height="44">
<path d="M0 0 C3.68359375 0.4609375 3.68359375 0.4609375 6.3359375 2.796875 C7.09003906 3.79976563 7.84414063 4.80265625 8.62109375 5.8359375 C9.39324219 6.83367188 10.16539063 7.83140625 10.9609375 8.859375 C12.68359375 11.4609375 12.68359375 11.4609375 12.68359375 13.4609375 C13.67359375 13.7909375 14.66359375 14.1209375 15.68359375 14.4609375 C19.42394337 17.51874157 22.11820308 20.97763278 22.80859375 25.8359375 C22.59583671 29.39201951 21.76808403 30.37932906 19.1640625 32.89453125 C16.07521951 35.21402001 12.91232722 37.34220776 9.68359375 39.4609375 C8.8121875 40.19054688 7.94078125 40.92015625 7.04296875 41.671875 C3.9253956 44.03586258 2.11520239 44.33090322 -1.71484375 44.18359375 C-6.35406372 42.89492154 -9.74678812 39.83122705 -13.421875 36.8203125 C-16.29102079 34.37555265 -16.29102079 34.37555265 -19.64453125 32.4140625 C-22.31640625 30.4609375 -22.31640625 30.4609375 -23.0078125 28.4609375 C-22.74155907 24.32997523 -22.53112926 21.42837413 -19.31640625 18.4609375 C-18.65640625 18.4609375 -17.99640625 18.4609375 -17.31640625 18.4609375 C-17.08953125 17.7390625 -16.86265625 17.0171875 -16.62890625 16.2734375 C-15.04720907 12.88408641 -13.11526123 10.9184687 -10.31640625 8.4609375 C-9.32640625 8.1309375 -8.33640625 7.8009375 -7.31640625 7.4609375 C-6.59912847 5.81541788 -5.93315397 4.14671461 -5.31640625 2.4609375 C-3.31640625 0.4609375 -3.31640625 0.4609375 0 0 Z " fill="#030202" transform="translate(22.31640625,0.5390625)"/>
<path d="M0 0 C0.33 0 0.66 0 1 0 C1.02932572 3.18748029 1.04690739 6.37492528 1.0625 9.5625 C1.07087891 10.45775391 1.07925781 11.35300781 1.08789062 12.27539062 C1.10629571 17.29997943 0.86266398 22.04817291 0 27 C-0.33 25.68 -0.66 24.36 -1 23 C-7.435 23.495 -7.435 23.495 -14 24 C-14 24.66 -14 25.32 -14 26 C-15.32 25.34 -16.64 24.68 -18 24 C-18 23.01 -18 22.02 -18 21 C-17.34 21 -16.68 21 -16 21 C-16 20.01 -16 19.02 -16 18 C-14.38025441 16.28769752 -12.7041054 14.62836738 -11 13 C-9.32932867 11.00334402 -7.66247014 9.00348966 -6 7 C-4 5 -4 5 -2 3 C-1.34 2.01 -0.68 1.02 0 0 Z " fill="#C7B161" transform="translate(21,4)"/>
<path d="M0 0 C0.33 0 0.66 0 1 0 C1 5.61 1 11.22 1 17 C-3.29393134 15.28242747 -5.74031075 13.88391186 -9.25 11.0625 C-10.12140625 10.37285156 -10.9928125 9.68320312 -11.890625 8.97265625 C-14 7 -14 7 -15 4 C-14 3 -14 3 -11.05859375 2.90234375 C-9.26615234 2.91974609 -9.26615234 2.91974609 -7.4375 2.9375 C-5.64119141 2.95103516 -5.64119141 2.95103516 -3.80859375 2.96484375 C-2.88175781 2.97644531 -1.95492188 2.98804688 -1 3 C-0.67 2.01 -0.34 1.02 0 0 Z " fill="#A37E32" transform="translate(21,24)"/>
<path d="M0 0 C1.32 1.32 2.64 2.64 4 4 C2.88693465 7.33919605 2.20114103 7.88095621 -0.52734375 9.91796875 C-1.59178711 10.71557617 -1.59178711 10.71557617 -2.67773438 11.52929688 C-3.79631836 12.35010742 -3.79631836 12.35010742 -4.9375 13.1875 C-5.67935547 13.74630859 -6.42121094 14.30511719 -7.18554688 14.88085938 C-12.73305861 19 -12.73305861 19 -15 19 C-15.39246908 15.96490576 -15.63722533 13.93654672 -15 11 C-12.87246846 8.44105234 -10.28795407 6.78328594 -7.5 5 C-6.78457031 4.51144531 -6.06914062 4.02289062 -5.33203125 3.51953125 C-3.57098933 2.32202274 -1.78751127 1.15762634 0 0 Z " fill="#BE9C43" transform="translate(38,22)"/>
<path d="M0 0 C1.54897985 3.0979597 0.83239539 6.26216552 0.5625 9.625 C0.51029297 10.33140625 0.45808594 11.0378125 0.40429688 11.765625 C0.27458793 13.51079987 0.13795046 15.25545725 0 17 C-3.96 17 -7.92 17 -12 17 C-10.47206343 10.88825372 -6.34033211 7.34033211 -2 3 C-1.34 2.01 -0.68 1.02 0 0 Z " fill="#F7F1D4" transform="translate(21,4)"/>
<path d="M0 0 C0.66 1.65 1.32 3.3 2 5 C0.04594482 6.50587739 -1.91281284 8.00478644 -3.875 9.5 C-4.43058594 9.92925781 -4.98617188 10.35851563 -5.55859375 10.80078125 C-9.7734375 14 -9.7734375 14 -12 14 C-12.625 10.9375 -12.625 10.9375 -12 7 C-8.83932717 4.03400629 -4.51653924 0 0 0 Z " fill="#DCCA75" transform="translate(35,17)"/>
<path d="M0 0 C-1.41573821 3.39187279 -3.04230966 5.09697541 -6 7.25 C-7.051875 8.03117187 -7.051875 8.03117187 -8.125 8.828125 C-10 10 -10 10 -12 10 C-12 7.36 -12 4.72 -12 2 C-7.8794254 0.00214565 -4.54805635 -0.17835515 0 0 Z " fill="#A67F2F" transform="translate(35,31)"/>
<path d="M0 0 C0.99 0.33 1.98 0.66 3 1 C3.6875 3.0625 3.6875 3.0625 4 5 C2.68969568 6.00287529 1.37669473 7.00222825 0.0625 8 C-1.03384766 8.8353125 -1.03384766 8.8353125 -2.15234375 9.6875 C-4 11 -4 11 -5 11 C-5.3125 7.75 -5.3125 7.75 -5 4 C-2.6875 1.5 -2.6875 1.5 0 0 Z " fill="#F4EEDC" transform="translate(28,11)"/>
<path d="M0 0 C1.79244141 0.01740234 1.79244141 0.01740234 3.62109375 0.03515625 C5.41740234 0.04869141 5.41740234 0.04869141 7.25 0.0625 C8.17683594 0.07410156 9.10367187 0.08570312 10.05859375 0.09765625 C10.38859375 2.07765625 10.71859375 4.05765625 11.05859375 6.09765625 C10.39859375 5.76765625 9.73859375 5.43765625 9.05859375 5.09765625 C9.05859375 4.43765625 9.05859375 3.77765625 9.05859375 3.09765625 C3.11859375 3.59265625 3.11859375 3.59265625 -2.94140625 4.09765625 C-3.27140625 3.10765625 -3.60140625 2.11765625 -3.94140625 1.09765625 C-2.94140625 0.09765625 -2.94140625 0.09765625 0 0 Z " fill="#BA9940" transform="translate(9.94140625,26.90234375)"/>
<path d="M0 0 C0.66 0.33 1.32 0.66 2 1 C3.70702735 1.06996014 5.41668003 1.08440154 7.125 1.0625 C8.03507812 1.05347656 8.94515625 1.04445313 9.8828125 1.03515625 C10.93082031 1.01775391 10.93082031 1.01775391 12 1 C12.33 1.99 12.66 2.98 13 4 C8.05 4.33 3.1 4.66 -2 5 C-1.34 3.35 -0.68 1.7 0 0 Z " fill="#E4D58F" transform="translate(8,19)"/>
<path d="M0 0 C2.64 0 5.28 0 8 0 C8 0.99 8 1.98 8 3 C2.74285714 7 2.74285714 7 0 7 C0 4.69 0 2.38 0 0 Z " fill="#CBAF52" transform="translate(23,24)"/>
<path d="M0 0 C1.70884005 1.62339805 3.37446717 3.29319053 5 5 C5 5.66 5 6.32 5 7 C3.35 7.66 1.7 8.32 0 9 C0 6.03 0 3.06 0 0 Z " fill="#EDE9D9" transform="translate(23,4)"/>
<path d="M0 0 C0.66 1.65 1.32 3.3 2 5 C-0.64 4.67 -3.28 4.34 -6 4 C-2.25 0 -2.25 0 0 0 Z " fill="#F0E9BA" transform="translate(35,17)"/>
<path d="M0 0 C0.66 0.66 1.32 1.32 2 2 C4.43252661 2.46162427 4.43252661 2.46162427 7.125 2.625 C8.03507812 2.69976563 8.94515625 2.77453125 9.8828125 2.8515625 C10.58148438 2.90054687 11.28015625 2.94953125 12 3 C12 3.33 12 3.66 12 4 C7.38 4.33 2.76 4.66 -2 5 C-1.34 3.35 -0.68 1.7 0 0 Z " fill="#DACB7C" transform="translate(8,19)"/>
<path d="M0 0 C1.37562854 1.28965176 2.70766393 2.62689293 4 4 C4 4.66 4 5.32 4 6 C3.34 6 2.68 6 2 6 C2 5.34 2 4.68 2 4 C0.35 4 -1.3 4 -3 4 C-2.01 2.68 -1.02 1.36 0 0 Z " fill="#D7C15F" transform="translate(38,22)"/>
<path d="M0 0 C1.65 0 3.3 0 5 0 C5.33 0.66 5.66 1.32 6 2 C4.02 2.99 2.04 3.98 0 5 C0 3.35 0 1.7 0 0 Z " fill="#F0E8B9" transform="translate(23,17)"/>
<path d="M0 0 C2.475 0.495 2.475 0.495 5 1 C3.625 2.5 3.625 2.5 2 4 C1.34 4 0.68 4 0 4 C0 2.68 0 1.36 0 0 Z " fill="#BC9B41" transform="translate(23,27)"/>
<path d="M0 0 C0.99 0.33 1.98 0.66 3 1 C2.67 1.66 2.34 2.32 2 3 C1.34 3 0.68 3 0 3 C0 2.01 0 1.02 0 0 Z " fill="#C8AE52" transform="translate(29,24)"/>
</svg>
